<?xml version="1.0" encoding="utf-8"?>
<!-- Generator: Adobe Illustrator 18.1.1, SVG Export Plug-In . SVG Version: 6.00 Build 0)  -->
<svg version="1.1" id="Layer_1" xmlns="http://www.w3.org/2000/svg" xmlns:xlink="http://www.w3.org/1999/xlink" x="0px" y="0px"
	 viewBox="0 0 612 792" enable-background="new 0 0 612 792" xml:space="preserve">
<g>
	<path fill="#010101" d="M564.4,187.3c-32.4-34.6-75.7-51.9-121.1-51.9s-88.7,17.3-118.9,49.7l-17.3,17.3l-17.3-17.3
		c-32.4-32.4-75.7-49.7-121.1-49.7c-43.3,0-86.5,17.3-118.9,49.7S0,260.8,0,304.1S17.3,392.8,49.7,423L261.7,635
		c13,13,28.1,17.3,45.4,17.3c15.1,0,32.4-6.5,45.4-17.3l209.8-209.8C627.1,360.3,629.3,252.2,564.4,187.3z M538.5,403.6L328.7,613.3
		c-13,13-32.4,13-45.4,0L71.4,401.4c-26-26-41.1-60.6-41.1-97.3s15.1-71.4,41.1-97.3s60.6-41.1,97.3-41.1s71.4,15.1,97.3,41.1
		c0,0,17.3,19.5,21.6,28.1c2.2,2.2,6.5,4.3,10.8,4.3c4.3,0,8.7-2.2,10.8-4.3l36.8-28.1c26-26,60.6-41.1,97.3-41.1
		s73.5,15.1,99.5,41.1C594.7,263,592.5,349.5,538.5,403.6z"/>
</g>
</svg>
