<svg width="301" height="86" viewBox="0 0 301 86" fill="none" xmlns="http://www.w3.org/2000/svg">
<g clip-path="url(#clip0_1636_7)">
<path d="M77.984 16.5V66H66.584V43.275L66.959 28.05H66.809L54.584 66H44.159L31.934 28.05H31.784L32.159 43.275V66H20.684V16.5H39.059L46.859 41.7L49.634 52.2H49.784L52.634 41.775L60.359 16.5H77.984ZM88.9457 66V16.5H127.496V26.475H101.846V36.525H122.246V45.9H101.846V56.025H128.471V66H88.9457ZM180.885 16.5V66H166.56L151.185 39.225L147.435 31.875H147.36L147.66 41.025V66H136.26V16.5H150.585L165.96 43.275L169.71 50.625H169.785L169.485 41.475V16.5H180.885ZM214.051 15.75C219.051 15.75 223.351 16.775 226.951 18.825C230.601 20.825 233.401 23.725 235.351 27.525C237.301 31.325 238.276 35.9 238.276 41.25C238.276 46.6 237.301 51.175 235.351 54.975C233.401 58.775 230.601 61.7 226.951 63.75C223.351 65.75 219.051 66.75 214.051 66.75C209.051 66.75 204.726 65.75 201.076 63.75C197.426 61.7 194.626 58.775 192.676 54.975C190.726 51.175 189.751 46.6 189.751 41.25C189.751 35.9 190.726 31.325 192.676 27.525C194.626 23.725 197.426 20.825 201.076 18.825C204.726 16.775 209.051 15.75 214.051 15.75ZM214.051 25.875C211.651 25.875 209.626 26.45 207.976 27.6C206.326 28.75 205.076 30.475 204.226 32.775C203.376 35.025 202.951 37.85 202.951 41.25C202.951 44.6 203.376 47.425 204.226 49.725C205.076 52.025 206.326 53.75 207.976 54.9C209.626 56.05 211.651 56.625 214.051 56.625C216.451 56.625 218.451 56.05 220.051 54.9C221.701 53.75 222.951 52.025 223.801 49.725C224.651 47.425 225.076 44.6 225.076 41.25C225.076 37.85 224.651 35.025 223.801 32.775C222.951 30.475 221.701 28.75 220.051 27.6C218.451 26.45 216.451 25.875 214.051 25.875ZM260.049 56.025H284.874V66H247.149V16.5H260.049V56.025Z" fill="black"/>
</g>
<defs>
<clipPath id="clip0_1636_7">
<rect width="301" height="86" fill="white"/>
</clipPath>
</defs>
</svg>
