<?xml version="1.0" encoding="utf-8"?>
<!-- Generator: Adobe Illustrator 18.1.1, SVG Export Plug-In . SVG Version: 6.00 Build 0)  -->
<svg version="1.1" id="Layer_1" xmlns="http://www.w3.org/2000/svg" xmlns:xlink="http://www.w3.org/1999/xlink" x="0px" y="0px"
	 viewBox="0 0 612 792" enable-background="new 0 0 612 792" xml:space="preserve">
<g id="Composite_Path">
	<path fill="#030303" d="M497.3,714.8c-22.9,0-51-15.3-58.6-45.9H242.3c-10.2,33.1-38.3,45.9-61.2,45.9c-35.7,0-61.2-28-61.2-63.8
		c0-2.5,0-5.1,0-7.6c0-2.6,0-5.1,0-7.7s0-5.1,0-5.1c0-2.6,0-5.1,2.5-7.7c2.5-10.2,17.8-25.5,30.6-33.1c0-10.2-10.2-63.8-17.8-91.8
		c-5.1-25.5-7.7-51-12.8-76.5C109.7,332.3,94.3,240.4,74,156.3c-7.7-17.9-35.7-33.2-56.1-43.4c-5.1-2.5-7.7-5.1-10.2-5.1
		C0,102.8,0,97.7,0,95.1c0-12.8,5.1-17.8,15.3-17.8c5.1,0,58.7,17.8,76.5,45.9c17.8,25.5,25.5,61.2,28.1,94.3h298.3
		c10.2,2.6,15.3,10.2,15.3,15.3c0,7.6-7.6,17.8-15.3,17.8H127.5l51,280.5h35.7c10.2,5.1,12.8,10.2,12.8,15.3
		c0,7.6-7.7,17.8-15.3,17.8h-30.6l0,0c0,2.6,2.5,7.7,2.5,12.8c0,2.6,2.6,7.7,2.6,10.2c20.4,2.5,48.4,25.5,53.6,45.9H436
		c7.6-30.6,28.1-45.9,58.6-45.9c35.7,0,63.8,28,63.8,63.8C558.5,689.3,527.9,714.8,497.3,714.8z M497.3,625.5
		c-20.4,0-25.5,15.3-25.5,28s10.2,28.1,25.5,28.1c12.8,0,28-10.2,28-28.1C522.8,638.3,515.1,625.5,497.3,625.5z M181.1,625.5
		c-15.3,0-28.1,12.8-28.1,28c0,15.3,12.8,28.1,28.1,28.1s28-12.8,28-28.1C209.1,635.7,196.3,625.5,181.1,625.5z M308.6,564.3H306
		c-10.2-7.6-12.8-10.2-12.8-15.3s0-10.2,7.6-15.3h211.6c23,0,30.6-30.6,33.2-53.6c12.8-68.9,35.7-193.8,35.7-201.5
		c0-10.2-15.3-25.5-25.5-25.5H510l-2.6-2.6c-5.1-5.1-7.6-10.2-7.6-15.3c0-5.1,2.5-17.8,25.5-17.8c2.6,0,7.7,0,10.2,0h2.5h2.6
		c2.5,0,7.6,0,12.8,0c5.1,0,7.6,0,10.2,2.6c33.2,7.7,51,30.6,51,61.2c0,2.5-22.9,147.9-38.3,224.4c-5.1,25.5-28,61.2-56.1,61.2
		H308.6V564.3z M260.1,564.3c-5.1,0-7.7-2.5-10.2-5.1c-5.1-5.1-5.1-10.2-5.1-12.8c0-7.7,2.6-17.9,15.3-17.9
		c10.2,0,17.9,5.1,17.9,15.3C275.4,556.6,267.8,564.3,260.1,564.3z M464.1,250.7c-10.2,0-15.3-7.7-15.3-17.9s5.1-15.3,15.3-15.3
		c10.2,0,17.9,10.2,17.9,15.3C481.9,243,474.3,250.7,464.1,250.7z"/>
</g>
</svg>
