<?xml version="1.0" encoding="utf-8"?>
<!-- Generator: Adobe Illustrator 18.1.1, SVG Export Plug-In . SVG Version: 6.00 Build 0)  -->
<svg version="1.1" id="Layer_1" xmlns="http://www.w3.org/2000/svg" xmlns:xlink="http://www.w3.org/1999/xlink" x="0px" y="0px"
	 viewBox="11.2 231.7 597 597" enable-background="new 11.2 231.7 597 597" xml:space="preserve">
<linearGradient id="SVGID_1_" gradientUnits="userSpaceOnUse" x1="11.2064" y1="530.2396" x2="608.2064" y2="530.2396">
	<stop  offset="0" style="stop-color:#40BA57"/>
	<stop  offset="0.25" style="stop-color:#40BA57"/>
	<stop  offset="0.375" style="stop-color:#40BA58"/>
	<stop  offset="0.4375" style="stop-color:#40BB58"/>
	<stop  offset="0.5" style="stop-color:#41BB58"/>
	<stop  offset="0.5313" style="stop-color:#42BB59"/>
	<stop  offset="0.5625" style="stop-color:#42BB59"/>
	<stop  offset="0.5938" style="stop-color:#43BB59"/>
	<stop  offset="0.6094" style="stop-color:#44BC5A"/>
	<stop  offset="0.625" style="stop-color:#44BC5A"/>
	<stop  offset="0.6406" style="stop-color:#45BC5A"/>
	<stop  offset="0.6563" style="stop-color:#46BC5B"/>
	<stop  offset="0.6719" style="stop-color:#46BD5B"/>
	<stop  offset="0.6875" style="stop-color:#47BD5C"/>
	<stop  offset="0.7031" style="stop-color:#48BD5C"/>
	<stop  offset="0.7109" style="stop-color:#49BD5D"/>
	<stop  offset="0.7188" style="stop-color:#49BD5D"/>
	<stop  offset="0.7266" style="stop-color:#4ABE5D"/>
	<stop  offset="0.7344" style="stop-color:#4ABE5D"/>
	<stop  offset="0.7422" style="stop-color:#4BBE5E"/>
	<stop  offset="0.75" style="stop-color:#4BBE5E"/>
	<stop  offset="0.7578" style="stop-color:#4CBE5E"/>
	<stop  offset="0.7656" style="stop-color:#4CBF5F"/>
	<stop  offset="0.7734" style="stop-color:#4DBF5F"/>
	<stop  offset="0.7813" style="stop-color:#4EBF60"/>
	<stop  offset="0.7891" style="stop-color:#4EBF60"/>
	<stop  offset="0.7969" style="stop-color:#4FBF60"/>
	<stop  offset="0.8047" style="stop-color:#50C061"/>
	<stop  offset="0.8125" style="stop-color:#51C061"/>
	<stop  offset="0.8203" style="stop-color:#51C062"/>
	<stop  offset="0.8281" style="stop-color:#52C162"/>
	<stop  offset="0.8359" style="stop-color:#53C163"/>
	<stop  offset="0.8398" style="stop-color:#54C163"/>
	<stop  offset="0.8438" style="stop-color:#54C164"/>
	<stop  offset="0.8477" style="stop-color:#55C164"/>
	<stop  offset="0.8516" style="stop-color:#55C264"/>
	<stop  offset="0.8555" style="stop-color:#56C264"/>
	<stop  offset="0.8594" style="stop-color:#56C265"/>
	<stop  offset="0.8633" style="stop-color:#57C265"/>
	<stop  offset="0.8672" style="stop-color:#57C265"/>
	<stop  offset="0.8711" style="stop-color:#58C266"/>
	<stop  offset="0.875" style="stop-color:#58C366"/>
	<stop  offset="0.8789" style="stop-color:#59C366"/>
	<stop  offset="0.8828" style="stop-color:#59C367"/>
	<stop  offset="0.8867" style="stop-color:#5AC367"/>
	<stop  offset="0.8906" style="stop-color:#5AC367"/>
	<stop  offset="0.8945" style="stop-color:#5BC468"/>
	<stop  offset="0.8984" style="stop-color:#5BC468"/>
	<stop  offset="0.9023" style="stop-color:#5CC468"/>
	<stop  offset="0.9063" style="stop-color:#5DC469"/>
	<stop  offset="0.9102" style="stop-color:#5DC469"/>
	<stop  offset="0.9141" style="stop-color:#5EC56A"/>
	<stop  offset="0.918" style="stop-color:#5EC56A"/>
	<stop  offset="0.9219" style="stop-color:#5FC56A"/>
	<stop  offset="0.9258" style="stop-color:#60C56B"/>
	<stop  offset="0.9297" style="stop-color:#60C56B"/>
	<stop  offset="0.9336" style="stop-color:#61C66C"/>
	<stop  offset="0.9375" style="stop-color:#62C66C"/>
	<stop  offset="0.9414" style="stop-color:#62C66D"/>
	<stop  offset="0.9453" style="stop-color:#63C66D"/>
	<stop  offset="0.9492" style="stop-color:#64C76E"/>
	<stop  offset="0.9531" style="stop-color:#64C76E"/>
	<stop  offset="0.957" style="stop-color:#65C76E"/>
	<stop  offset="0.9609" style="stop-color:#66C76F"/>
	<stop  offset="0.9688" style="stop-color:#66C76F"/>
	<stop  offset="1" style="stop-color:#66C76F"/>
</linearGradient>
<circle fill="url(#SVGID_1_)" cx="309.7" cy="530.2" r="298.5"/>
<g>
	<path fill="#FFFFFF" d="M312.8,698.7c-53.2,0-95.7-28.8-95.7-28.8l-65.3,21.3L173,628c0,0-33.9-46.9-33.9-103.1
		c0-95.9,77.8-173.8,173.8-173.8s173.8,77.8,173.8,173.8S408.8,698.7,312.8,698.7 M312.8,318C198.6,318,106,410.6,106,524.9
		c0,56.7,30,107.4,30,107.4L99.8,742.5l113.3-36.2c0,0,42.1,25.5,99.7,25.5c114.3,0,206.9-92.6,206.9-206.9S427.1,318,312.8,318"/>
	<g>
		<g>
			<defs>
				<rect id="SVGID_2_" x="138.5" y="351.1" width="348.5" height="348.5"/>
			</defs>
			<clipPath id="SVGID_3_">
				<use xlink:href="#SVGID_2_"  overflow="visible"/>
			</clipPath>
			<g clip-path="url(#SVGID_3_)">
				<g id="surface1">
					<g>
						<defs>
							<path id="SVGID_4_" d="M139.1,524.9c0,56.3,33.9,103.1,33.9,103.1l-21.2,63.2l65.4-21.3c0,0,42.6,28.8,95.7,28.8
								c95.9,0,173.8-77.8,173.8-173.8c0-95.9-77.8-173.8-173.8-173.8C216.8,351.1,139.1,429,139.1,524.9 M358.9,621.5
								c-12.4-3.4-53.3-14.1-79.9-39.1c-26.7-24.8-48.3-51.1-57.1-70.4c-8.8-19.3-8.3-30.7-7.9-36.1s3.3-30.4,20-41.1
								c0,0,5.6-3.5,8.5-3.5h16.3c0,0,4.3,0.8,6.4,5.3c2,4.5,15.7,36.8,16.8,39.4c1,2.5,3.7,8.6-0.6,14.1
								c-4.3,5.5-13.3,15.8-13.3,15.8s-3.5,3.1-0.5,8.2c3,5.1,13.8,21.8,28,34.5c14.1,12.7,31.4,22,40.1,24.8
								c8.6,2.8,10.5-1,13.8-5.2c3.3-4.2,13.5-17.3,13.5-17.3s3.5-5.2,10.5-2.1c7,3.2,40.8,19.6,40.8,19.6s4.1,0.7,4.3,5.3
								c0.2,4.6,3,18.4-9.2,31.6c-10,10.8-29.3,16.9-42.7,16.9C363.9,622.5,361.2,622.2,358.9,621.5"/>
						</defs>
						<clipPath id="SVGID_5_">
							<use xlink:href="#SVGID_4_"  overflow="visible"/>
						</clipPath>
						<g clip-path="url(#SVGID_5_)">
							
								<linearGradient id="SVGID_6_" gradientUnits="userSpaceOnUse" x1="-44.1208" y1="-1.2028" x2="-43.2736" y2="-1.2028" gradientTransform="matrix(130.0501 -485.3538 -485.3538 -130.0501 5411.9077 -20840.125)">
								<stop  offset="0" style="stop-color:#40BA57"/>
								<stop  offset="0.25" style="stop-color:#40BA57"/>
								<stop  offset="0.375" style="stop-color:#40BA58"/>
								<stop  offset="0.4375" style="stop-color:#40BB58"/>
								<stop  offset="0.5" style="stop-color:#41BB58"/>
								<stop  offset="0.5313" style="stop-color:#42BB59"/>
								<stop  offset="0.5625" style="stop-color:#42BB59"/>
								<stop  offset="0.5938" style="stop-color:#43BB59"/>
								<stop  offset="0.6094" style="stop-color:#44BC5A"/>
								<stop  offset="0.625" style="stop-color:#44BC5A"/>
								<stop  offset="0.6406" style="stop-color:#45BC5A"/>
								<stop  offset="0.6563" style="stop-color:#46BC5B"/>
								<stop  offset="0.6719" style="stop-color:#46BD5B"/>
								<stop  offset="0.6875" style="stop-color:#47BD5C"/>
								<stop  offset="0.7031" style="stop-color:#48BD5C"/>
								<stop  offset="0.7109" style="stop-color:#49BD5D"/>
								<stop  offset="0.7188" style="stop-color:#49BD5D"/>
								<stop  offset="0.7266" style="stop-color:#4ABE5D"/>
								<stop  offset="0.7344" style="stop-color:#4ABE5D"/>
								<stop  offset="0.7422" style="stop-color:#4BBE5E"/>
								<stop  offset="0.75" style="stop-color:#4BBE5E"/>
								<stop  offset="0.7578" style="stop-color:#4CBE5E"/>
								<stop  offset="0.7656" style="stop-color:#4CBF5F"/>
								<stop  offset="0.7734" style="stop-color:#4DBF5F"/>
								<stop  offset="0.7813" style="stop-color:#4EBF60"/>
								<stop  offset="0.7891" style="stop-color:#4EBF60"/>
								<stop  offset="0.7969" style="stop-color:#4FBF60"/>
								<stop  offset="0.8047" style="stop-color:#50C061"/>
								<stop  offset="0.8125" style="stop-color:#51C061"/>
								<stop  offset="0.8203" style="stop-color:#51C062"/>
								<stop  offset="0.8281" style="stop-color:#52C162"/>
								<stop  offset="0.8359" style="stop-color:#53C163"/>
								<stop  offset="0.8398" style="stop-color:#54C163"/>
								<stop  offset="0.8438" style="stop-color:#54C164"/>
								<stop  offset="0.8477" style="stop-color:#55C164"/>
								<stop  offset="0.8516" style="stop-color:#55C264"/>
								<stop  offset="0.8555" style="stop-color:#56C264"/>
								<stop  offset="0.8594" style="stop-color:#56C265"/>
								<stop  offset="0.8633" style="stop-color:#57C265"/>
								<stop  offset="0.8672" style="stop-color:#57C265"/>
								<stop  offset="0.8711" style="stop-color:#58C266"/>
								<stop  offset="0.875" style="stop-color:#58C366"/>
								<stop  offset="0.8789" style="stop-color:#59C366"/>
								<stop  offset="0.8828" style="stop-color:#59C367"/>
								<stop  offset="0.8867" style="stop-color:#5AC367"/>
								<stop  offset="0.8906" style="stop-color:#5AC367"/>
								<stop  offset="0.8945" style="stop-color:#5BC468"/>
								<stop  offset="0.8984" style="stop-color:#5BC468"/>
								<stop  offset="0.9023" style="stop-color:#5CC468"/>
								<stop  offset="0.9063" style="stop-color:#5DC469"/>
								<stop  offset="0.9102" style="stop-color:#5DC469"/>
								<stop  offset="0.9141" style="stop-color:#5EC56A"/>
								<stop  offset="0.918" style="stop-color:#5EC56A"/>
								<stop  offset="0.9219" style="stop-color:#5FC56A"/>
								<stop  offset="0.9258" style="stop-color:#60C56B"/>
								<stop  offset="0.9297" style="stop-color:#60C56B"/>
								<stop  offset="0.9336" style="stop-color:#61C66C"/>
								<stop  offset="0.9375" style="stop-color:#62C66C"/>
								<stop  offset="0.9414" style="stop-color:#62C66D"/>
								<stop  offset="0.9453" style="stop-color:#63C66D"/>
								<stop  offset="0.9492" style="stop-color:#64C76E"/>
								<stop  offset="0.9531" style="stop-color:#64C76E"/>
								<stop  offset="0.957" style="stop-color:#65C76E"/>
								<stop  offset="0.9609" style="stop-color:#66C76F"/>
								<stop  offset="0.9688" style="stop-color:#66C76F"/>
								<stop  offset="1" style="stop-color:#66C76F"/>
							</linearGradient>
							<path fill="url(#SVGID_6_)" d="M463.4,785.6L52.2,675.4l110.2-411.2l411.2,110.2L463.4,785.6z"/>
						</g>
					</g>
					<path fill="#FFFFFF" d="M418.9,574c0.2,4.6,3,18.4-9.2,31.6c-12.3,13.3-38.4,19.4-50.8,15.9c-12.4-3.4-53.3-14.1-79.9-39.1
						c-26.7-24.8-48.3-51.1-57.1-70.4c-8.8-19.3-8.3-30.7-7.9-36.1c0.5-5.4,3.3-30.4,20-41.1c0,0,5.6-3.5,8.5-3.5h16.3
						c0,0,4.3,0.8,6.4,5.3c2,4.5,15.7,36.8,16.8,39.3c1,2.5,3.7,8.6-0.6,14.1s-13.3,15.8-13.3,15.8s-3.5,3.1-0.5,8.2
						c3,5.1,13.8,21.8,28,34.5c14.1,12.7,31.4,22,40.1,24.8s10.5-1,13.8-5.2c3.3-4.2,13.5-17.3,13.5-17.3s3.5-5.2,10.5-2.1
						c7,3.2,40.8,19.6,40.8,19.6S418.7,569.4,418.9,574"/>
				</g>
			</g>
		</g>
	</g>
</g>
</svg>
