<svg width="184" height="67" viewBox="0 0 184 67" fill="none" xmlns="http://www.w3.org/2000/svg">
<path d="M0 3.51544H39.7204V23.3756H19.8602L0 3.51544ZM0 23.3756H19.8602L39.7204 43.2358H0V23.3756ZM0 43.2358H19.8602V63.096L0 43.2358Z" fill="#D7D9FF"/>
<path d="M62.1319 19.1832H78.1877V24.2852H68.2089V31.3754H78.1877V36.3647H68.2089V45.4429H62.1319V19.1832ZM81.4887 27.361H87.2286V31.15C87.5285 29.8479 88.1418 28.8484 89.0668 28.1488C90.0154 27.4228 91.0686 27.0611 92.218 27.0611C92.8186 27.0611 93.3193 27.112 93.7182 27.211V32.5384C93.1457 32.4694 92.5696 32.4321 91.9926 32.4257C90.4171 32.4257 89.2304 32.9373 88.4289 33.9632C87.6303 34.9636 87.2286 36.4637 87.2286 38.4655V45.4429H81.4915V27.361H81.4887ZM102.779 45.9309C101.029 45.9309 99.5026 45.5175 98.2023 44.6924C96.9266 43.8674 95.9125 42.6961 95.2765 41.3159C94.6014 39.8666 94.2615 38.2265 94.2615 36.402C94.2615 34.601 94.6141 32.9746 95.3137 31.5253C95.9698 30.1251 97.0111 28.9411 98.315 28.1115C99.6389 27.2865 101.153 26.873 102.855 26.873C104.129 26.873 105.269 27.1493 106.268 27.699C107.268 28.2505 108.018 29.0011 108.519 29.9497V27.361H114.221V45.4429H108.519V42.8915C108.018 43.7919 107.243 44.5289 106.193 45.1049C105.143 45.6619 103.969 45.9454 102.779 45.9309ZM104.43 41.166C105.805 41.166 106.868 40.7162 107.619 39.8157C108.369 38.9153 108.744 37.7767 108.744 36.402C108.744 35.0517 108.369 33.9259 107.619 33.0254C106.868 32.125 105.805 31.6752 104.43 31.6752C103.128 31.6752 102.079 32.1123 101.279 32.9882C100.504 33.8641 100.116 35.0008 100.116 36.402C100.116 37.8031 100.504 38.9525 101.279 39.853C102.079 40.7289 103.13 41.166 104.43 41.166ZM118.235 27.361H123.975V29.9869C124.377 29.0601 125.025 28.3096 125.925 27.7362C126.852 27.1629 127.927 26.873 129.152 26.873C132.003 26.873 133.892 27.9852 134.816 30.2123C135.325 29.2028 136.121 28.3677 137.105 27.8117C138.157 27.1783 139.366 26.8539 140.593 26.873C144.87 26.873 147.008 29.3227 147.008 34.2258V45.4429H141.231V35.2762C141.231 34.0522 141.006 33.1517 140.556 32.5757C140.105 32.0014 139.43 31.7125 138.53 31.7125C137.555 31.7125 136.804 32.0505 136.279 32.7256C135.754 33.3762 135.491 34.5129 135.491 36.1394V45.4429H129.714V35.2389C129.714 34.014 129.49 33.1254 129.039 32.5757C128.615 32.0014 127.951 31.7125 127.053 31.7125C126.051 31.7125 125.288 32.0505 124.763 32.7256C124.238 33.3762 123.975 34.5129 123.975 36.1394V45.4429H118.237V27.361H118.235ZM168.57 35.4642C168.57 36.2384 168.519 37.0771 168.418 37.9775H155.065C155.116 39.1533 155.515 40.052 156.265 40.6789C157.016 41.3032 158.031 41.6167 159.304 41.6167C161.08 41.6167 162.206 41.0778 162.68 40.0029H168.308C168.031 41.7793 167.056 43.2159 165.381 44.3171C163.731 45.3921 161.705 45.9309 159.304 45.9309C156.204 45.9309 153.765 45.0922 151.988 43.4167C150.238 41.7402 149.362 39.4032 149.362 36.402C149.362 34.4511 149.762 32.7628 150.563 31.3372C151.336 29.9133 152.528 28.7612 153.977 28.0361C155.453 27.2619 157.166 26.873 159.119 26.873C160.968 26.873 162.605 27.2356 164.031 27.9616C165.481 28.6876 166.595 29.6998 167.369 31.0001C168.17 32.3022 168.57 33.7896 168.57 35.4642ZM162.903 34.4139C162.879 33.2135 162.541 32.2994 161.89 31.6752C161.241 31.051 160.302 30.7375 159.077 30.7375C157.852 30.7375 156.877 31.0746 156.151 31.7506C155.451 32.4012 155.089 33.288 155.062 34.4139H162.903ZM171.101 27.361H176.841V31.15C177.141 29.8479 177.754 28.8484 178.679 28.1488C179.577 27.4418 180.687 27.0584 181.83 27.0611C182.43 27.0611 182.931 27.112 183.33 27.211V32.5384C182.758 32.4694 182.182 32.4321 181.605 32.4257C180.029 32.4257 178.842 32.9373 178.041 33.9632C177.24 34.9636 176.841 36.4637 176.841 38.4655V45.4429H171.101V27.361Z" fill="#D7D9FF"/>
</svg>
