<svg width="190" height="71" viewBox="0 0 190 71" fill="none" xmlns="http://www.w3.org/2000/svg">
<path d="M66.1842 51.372V29.9343H66.5662L82.1707 51.372H87.0812V19.8905H81.6251V41.2741H81.2432L65.6386 19.8905H60.7281V51.372H66.1842ZM102.522 51.858C109.724 51.858 114.144 47.2141 114.144 39.4382C114.144 31.7163 109.724 27.0184 102.522 27.0184C95.3746 27.0184 90.9005 31.7163 90.9005 39.4382C90.9551 47.2141 95.32 51.858 102.522 51.858ZM102.522 47.322C98.7028 47.322 96.5203 44.4601 96.5203 39.4382C96.5203 34.4702 98.7028 31.5543 102.522 31.5543C106.341 31.5543 108.524 34.4702 108.524 39.4382C108.524 44.4601 106.341 47.322 102.522 47.322ZM119.109 21.6724V27.6664H115.289V31.9863H119.109V45.0001C119.109 49.644 121.291 51.48 126.856 51.48C127.893 51.48 128.93 51.372 129.748 51.21V46.9981C129.093 47.0521 128.657 47.1061 127.893 47.1061C125.602 47.1061 124.565 46.0801 124.565 43.7041V31.9863H129.748V27.6664H124.565V21.6724H119.109ZM133.022 51.372H138.478V27.5044H133.022V51.372ZM135.75 23.5624C137.55 23.5624 139.024 22.1044 139.024 20.3225C139.024 18.4865 137.55 17.0285 135.75 17.0285C133.949 17.0285 132.476 18.4865 132.476 20.3225C132.476 22.1044 133.949 23.5624 135.75 23.5624ZM153.428 51.858C160.63 51.858 165.049 47.2141 165.049 39.4382C165.049 31.7163 160.63 27.0184 153.428 27.0184C146.28 27.0184 141.806 31.7163 141.806 39.4382C141.806 47.2141 146.171 51.858 153.428 51.858ZM153.428 47.322C149.609 47.322 147.426 44.4601 147.426 39.4382C147.426 34.4702 149.609 31.5543 153.428 31.5543C157.193 31.5543 159.43 34.4702 159.43 39.4382C159.375 44.4601 157.193 47.322 153.428 47.322ZM168.269 51.372H173.725V37.4942C173.725 33.9843 175.798 31.7703 179.017 31.7703C182.345 31.7703 183.873 33.6063 183.873 37.2242V51.372H189.329V35.9282C189.329 30.2043 186.383 27.0184 181.036 27.0184C177.435 27.0184 175.034 28.6383 173.888 31.3383H173.506V27.5044H168.214C168.269 27.5044 168.269 51.372 168.269 51.372Z" fill="#D7D9FF"/>
<path fill-rule="evenodd" clip-rule="evenodd" d="M8.4131 17.8755C10.0011 19.1566 10.5755 19.0555 13.5488 18.8532L41.5587 17.1675C42.1669 17.1675 41.6601 16.5607 41.4573 16.4933L36.7947 13.1557C35.9162 12.4814 34.6998 11.6723 32.4361 11.8746L5.33844 13.8636C4.3586 13.9648 4.15587 14.4705 4.56132 14.8413L8.4131 17.8755ZM10.1025 24.3821V53.78C10.1025 55.3645 10.8796 55.9376 12.6703 55.8365L43.4508 54.0497C45.2415 53.9486 45.4443 52.8698 45.4443 51.5887V22.3931C45.4443 21.112 44.9375 20.404 43.8563 20.5051L11.6905 22.3931C10.5079 22.4942 10.1025 23.101 10.1025 24.3821ZM40.4775 25.9667C40.6802 26.8432 40.4775 27.7535 39.599 27.8546L38.1124 28.158V49.8693C36.8284 50.5435 35.6459 50.9481 34.6323 50.9481C33.0442 50.9481 32.6388 50.4424 31.4562 48.959L21.7592 33.7544V48.4533L24.8339 49.1276C24.8339 49.1276 24.8339 50.9144 22.3674 50.9144L15.5423 51.3189C15.3396 50.9144 15.5423 49.9367 16.218 49.7344L18.0088 49.2287V29.81L15.5423 29.6077C15.3396 28.7311 15.8464 27.45 17.2317 27.3489L24.5636 26.8432L34.666 42.2164V28.63L32.0982 28.3266C31.8955 27.2478 32.7064 26.4386 33.6862 26.3375L40.4775 25.9667ZM3.07467 11.1666L31.2873 9.1101C34.7336 8.80668 35.6459 9.00896 37.8083 10.5935L46.7958 16.8978C48.2824 17.9767 48.7892 18.2801 48.7892 19.46V54.0834C48.7892 56.2411 48.0121 57.5222 45.2415 57.7244L12.5014 59.7135C10.4066 59.8147 9.42673 59.5112 8.34553 58.129L1.68938 49.5321C0.506813 47.9476 0 46.7677 0 45.3854V14.6053C0 12.8185 0.810901 11.3689 3.07467 11.1666Z" fill="#D7D9FF"/>
</svg>
