<svg width="88" height="63" viewBox="0 0 88 63" fill="none" xmlns="http://www.w3.org/2000/svg">
<path opacity="0.1" d="M69 62.75C58.6484 62.75 50.25 54.3516 50.25 44L50.25 25.25C50.25 11.3828 61.5781 0.250002 75.25 0.25C78.7656 0.25 81.5 2.98437 81.5 6.5C81.5 9.82031 78.7656 12.75 75.25 12.75C68.4141 12.75 62.75 18.2188 62.75 25.25L62.75 26.2266C64.8984 25.6406 66.8516 25.25 69 25.25C79.5469 25.25 87.75 33.4531 87.75 44C87.75 54.3516 79.5469 62.75 69 62.75ZM0.250003 44L0.250001 25.25C0.25 11.3828 11.5781 0.250006 25.25 0.250005C28.7656 0.250004 31.5 2.98438 31.5 6.5C31.5 9.82032 28.7656 12.75 25.25 12.75C18.4141 12.75 12.75 18.2188 12.75 25.25L12.75 26.2266C14.8984 25.6406 16.8516 25.25 19 25.25C29.5469 25.25 37.75 33.4531 37.75 44C37.75 54.3516 29.5469 62.75 19 62.75C8.64844 62.75 0.250004 54.3516 0.250003 44Z" fill="#D6DAF0" fill-opacity="0.41"/>
</svg>
