<svg width="195" height="168" viewBox="0 0 195 168" fill="none" xmlns="http://www.w3.org/2000/svg">
<path d="M0 9.99999C0 4.47714 4.47715 0 10 0H164.944C168.399 0 171.61 1.78373 173.435 4.71757L193.491 36.9554C194.477 38.5408 195 40.3707 195 42.2379V157.687C195 163.21 190.523 167.687 185 167.687H10C4.47715 167.687 0 163.21 0 157.687V9.99999Z" fill="#10102B"/>
<path d="M0.5 9.99999C0.5 4.75329 4.75329 0.5 10 0.5H164.944C168.226 0.5 171.276 2.19455 173.01 4.98169L193.066 37.2196C194.003 38.7257 194.5 40.4641 194.5 42.2379V157.687C194.5 162.934 190.247 167.187 185 167.187H10C4.75329 167.187 0.5 162.934 0.5 157.687V9.99999Z" stroke="white" stroke-opacity="0.1"/>
<mask id="mask0_171_11" style="mask-type:alpha" maskUnits="userSpaceOnUse" x="0" y="0" width="195" height="168">
<path d="M0 9.99999C0 4.47714 4.47715 0 10 0H164.944C168.399 0 171.61 1.78373 173.435 4.71757L193.491 36.9554C194.477 38.5408 195 40.3707 195 42.2379V157.687C195 163.21 190.523 167.687 185 167.687H10C4.47715 167.687 0 163.21 0 157.687V9.99999Z" fill="#10102B"/>
<path d="M185 167.187H10C4.75329 167.187 0.5 162.934 0.5 157.687V9.99999C0.5 4.75329 4.75329 0.5 10 0.5H164.944C168.226 0.5 171.276 2.19455 173.01 4.98169L193.066 37.2196C194.003 38.7257 194.5 40.4641 194.5 42.2379V157.687C194.5 162.934 190.247 167.187 185 167.187Z" stroke="white" stroke-opacity="0.1"/>
</mask>
<g mask="url(#mask0_171_11)">
<path opacity="0.3" d="M90.5129 184.202C148.949 184.202 202.368 103.407 205.163 63.5181" stroke="white" stroke-opacity="0.1" stroke-width="1.27036"/>
<path opacity="0.2" d="M100.993 192.459C159.43 192.459 212.848 111.664 215.643 71.7751" stroke="white" stroke-opacity="0.1" stroke-width="1.27036"/>
<path opacity="0.1" d="M111.474 200.717C169.91 200.717 223.329 119.922 226.124 80.0327" stroke="white" stroke-opacity="0.1" stroke-width="1.27036"/>
</g>
</svg>
