<svg width="184" height="79" viewBox="0 0 184 79" fill="none" xmlns="http://www.w3.org/2000/svg">
<g clip-path="url(#clip0_56_2422)">
<path d="M50.5038 50.9317C45.3657 50.9317 41.9642 47.0394 41.0153 45.5317C42.2328 35.994 45.7955 32.9784 50.5038 32.9784C55.1587 32.9784 58.7751 36.6252 58.7751 41.9549C58.7751 47.2848 55.1587 50.9317 50.5038 50.9317ZM50.5038 27.1226C42.1254 27.1226 37.4349 32.47 36.0921 37.9751C34.5704 35.17 33.4425 31.418 32.5653 27.9291H20.9821V42.0427C20.9821 47.1622 18.601 50.9492 13.9463 50.9492C9.29156 50.9492 6.62405 47.1622 6.62405 42.0427L6.67775 27.9291H0V42.0427C0 46.1629 1.36062 49.8973 3.84911 52.5621C6.40922 55.3147 9.90026 56.7523 13.9463 56.7523C22.0026 56.7523 27.6241 50.7038 27.6241 42.0427V32.5576C28.4654 35.6784 30.4707 41.6745 34.3018 46.9343L30.7213 66.9038H37.5065L39.8695 52.755C40.6394 53.3861 41.4629 53.9472 42.3401 54.4557C44.6138 55.8583 47.2097 56.6473 49.8952 56.7348C49.8952 56.7348 50.3069 56.7523 50.5218 56.7523C58.8287 56.7523 65.4347 50.4584 65.4347 41.9549C65.4347 33.4518 58.8108 27.1226 50.5038 27.1226Z" fill="#D7D9FF"/>
<path d="M146.443 30.9464V27.9308H139.891V55.8599H146.533V44.9198C146.533 38.1873 147.159 33.3483 156.379 33.9795V27.5977C152.082 27.2821 148.735 28.1587 146.443 30.9464Z" fill="#D7D9FF"/>
<path d="M100.332 27.9351L95.5159 47.4662L90.3778 27.9351H81.9278L76.7716 47.4662L71.9737 27.9351H65.2422L72.6183 55.8819H80.603L86.1528 36.0351L91.6489 55.8819H99.6336L107.439 27.9351H100.332Z" fill="#D7D9FF"/>
<path d="M122.065 50.9492C117.339 50.9492 113.794 47.3025 113.794 41.9549C113.794 36.6076 117.357 32.9784 122.065 32.9784C126.72 32.9784 130.337 36.6252 130.337 41.9549C130.337 47.2848 126.72 50.9492 122.065 50.9492ZM122.065 27.1226C113.705 27.1226 107.152 33.4693 107.152 41.9549C107.152 50.4406 113.705 56.7348 122.065 56.7348C130.372 56.7348 136.978 50.4406 136.978 41.9549C136.978 33.4693 130.39 27.1226 122.065 27.1226Z" fill="#D7D9FF"/>
<path d="M165.906 42.1331H167.446L176.719 55.8784H184.221L173.55 40.6427C178.725 38.6616 182.198 33.4895 182.198 27.9317H175.573C175.573 33.9629 170.722 36.2421 165.906 36.2421V16.9038H159.246V55.8784H165.888L165.906 42.1331Z" fill="#D7D9FF"/>
</g>
<defs>
<clipPath id="clip0_56_2422">
<rect width="184" height="77.4737" fill="white" transform="translate(0 0.763184)"/>
</clipPath>
</defs>
</svg>
