<svg width="184" height="81" viewBox="0 0 184 81" fill="none" xmlns="http://www.w3.org/2000/svg">
<path fill-rule="evenodd" clip-rule="evenodd" d="M113.636 63.5122C102.991 71.3297 87.5626 75.5005 74.2789 75.5005C55.653 75.5005 38.8849 68.6365 26.1992 57.2202C25.2025 56.3224 26.0955 55.099 27.2915 55.7981C40.9819 63.7347 57.9095 68.5093 75.3952 68.5093C87.1879 68.5093 100.161 66.0783 112.089 61.0335C113.891 60.2709 115.398 62.2093 113.636 63.5122Z" fill="#D7D9FF"/>
<path fill-rule="evenodd" clip-rule="evenodd" d="M118.061 58.4675C116.706 56.7356 109.067 57.6492 105.639 58.0544C104.594 58.1815 104.435 57.2758 105.375 56.6244C111.459 52.3582 121.442 53.5896 122.606 55.0196C123.77 56.4576 122.303 66.4279 116.586 71.1867C115.709 71.9176 114.872 71.5283 115.262 70.5591C116.546 67.3654 119.425 60.2074 118.061 58.4675Z" fill="#D7D9FF"/>
<path fill-rule="evenodd" clip-rule="evenodd" d="M105.879 26.5061V22.359C105.879 21.7314 106.358 21.3103 106.932 21.3103H125.565C126.164 21.3103 126.642 21.7393 126.642 22.359V25.9102C126.634 26.5061 126.132 27.2846 125.239 28.516L115.583 42.2521C119.171 42.1647 122.958 42.697 126.211 44.5243C126.945 44.9374 127.144 45.5411 127.2 46.137V50.5621C127.2 51.1659 126.53 51.8729 125.829 51.5075C120.096 48.5124 112.481 48.1867 106.142 51.5393C105.496 51.8888 104.819 51.1897 104.819 50.5859V46.3833C104.819 45.708 104.827 44.556 105.504 43.5312L116.691 27.5468H106.956C106.358 27.5468 105.879 27.1257 105.879 26.5061Z" fill="#D7D9FF"/>
<path fill-rule="evenodd" clip-rule="evenodd" d="M37.9057 52.3814H32.2366C31.6944 52.3417 31.2638 51.9365 31.224 51.4201V22.4306C31.224 21.8506 31.7104 21.3898 32.3163 21.3898H37.6027C38.1529 21.4137 38.5914 21.8347 38.6313 22.3591V26.1486H38.7349C40.1143 22.4862 42.7057 20.7781 46.1981 20.7781C49.7462 20.7781 51.9628 22.4862 53.5575 26.1486C54.9289 22.4862 58.0466 20.7781 61.3874 20.7781C63.7635 20.7781 66.3628 21.7553 67.9495 23.948C69.7436 26.387 69.3768 29.9302 69.3768 33.0365L69.3688 51.3328C69.3688 51.9127 68.8824 52.3814 68.2765 52.3814H62.6153C62.0492 52.3417 61.5947 51.8889 61.5947 51.3328V35.968C61.5947 34.7446 61.7063 31.6939 61.4353 30.534C61.0127 28.5876 59.7449 28.0394 58.1024 28.0394C56.7309 28.0394 55.2957 28.953 54.7137 30.4148C54.1316 31.8766 54.1874 34.3235 54.1874 35.968V51.3328C54.1874 51.9127 53.701 52.3814 53.0951 52.3814H47.4339C46.8599 52.3417 46.4133 51.8889 46.4133 51.3328L46.4054 35.968C46.4054 32.7346 46.9396 27.9759 42.913 27.9759C38.8386 27.9759 38.9981 32.6155 38.9981 35.968V51.3328C38.9981 51.9127 38.5117 52.3814 37.9057 52.3814Z" fill="#D7D9FF"/>
<path fill-rule="evenodd" clip-rule="evenodd" d="M142.684 20.7781C151.096 20.7781 155.649 27.9759 155.649 37.1279C155.649 45.9702 150.618 52.9852 142.684 52.9852C134.424 52.9852 129.927 45.7875 129.927 36.8181C129.927 27.7931 134.48 20.7781 142.684 20.7781ZM142.732 26.6968C138.554 26.6968 138.291 32.3692 138.291 35.9045C138.291 39.4477 138.235 47.0109 142.684 47.0109C147.078 47.0109 147.285 40.9095 147.285 37.1915C147.285 34.7446 147.181 31.821 146.44 29.5012C145.802 27.4833 144.534 26.6968 142.732 26.6968Z" fill="#D7D9FF"/>
<path fill-rule="evenodd" clip-rule="evenodd" d="M166.557 52.3814H160.912C160.346 52.3417 159.891 51.8889 159.891 51.3328L159.883 22.3352C159.931 21.803 160.401 21.3898 160.975 21.3898H166.23C166.724 21.4137 167.131 21.7474 167.243 22.2002V26.6332H167.346C168.933 22.6689 171.157 20.7781 175.072 20.7781C177.616 20.7781 180.096 21.6917 181.69 24.1943C183.173 26.5141 183.173 30.4148 183.173 33.2192V51.4678C183.11 51.9763 182.639 52.3814 182.081 52.3814H176.396C175.878 52.3417 175.447 51.9604 175.391 51.4678V35.7218C175.391 32.5519 175.758 27.9123 171.843 27.9123C170.464 27.9123 169.196 28.8339 168.566 30.2321C167.769 32.0037 167.665 33.7674 167.665 35.7218V51.3328C167.657 51.9127 167.163 52.3814 166.557 52.3814Z" fill="#D7D9FF"/>
<path fill-rule="evenodd" clip-rule="evenodd" d="M91.0247 38.5341C91.0247 40.7347 91.0805 42.5699 89.9642 44.5243C89.0632 46.1132 87.628 47.0903 86.0413 47.0903C83.8646 47.0903 82.5888 45.4379 82.5888 42.9989C82.5888 38.1845 86.9184 37.3106 91.0247 37.3106V38.5341ZM96.7416 52.3019C96.3669 52.6356 95.8247 52.6595 95.4021 52.437C93.5204 50.8799 93.1775 50.1569 92.1489 48.6713C89.0393 51.8332 86.8307 52.7786 82.8041 52.7786C78.028 52.7786 74.3204 49.8471 74.3204 43.9761C74.3204 39.3921 76.8081 36.2699 80.3642 34.7445C83.442 33.394 87.7396 33.1556 91.0247 32.7822V32.0513C91.0247 30.7087 91.1283 29.1198 90.331 27.9599C89.6453 26.9192 88.3217 26.4902 87.1496 26.4902C84.9888 26.4902 83.0672 27.5945 82.5968 29.8825C82.5011 30.3909 82.1264 30.8914 81.6081 30.9153L76.1144 30.3274C75.6519 30.2241 75.1337 29.8507 75.2692 29.1437C76.529 22.502 82.5569 20.5 87.947 20.5C90.7058 20.5 94.3097 21.2309 96.4865 23.3124C99.2453 25.8784 98.9822 29.3025 98.9822 33.0285V41.8311C98.9822 44.4766 100.082 45.6365 101.119 47.0665C101.478 47.575 101.558 48.1867 101.095 48.568C99.9389 49.5293 97.8818 51.3168 96.7496 52.3178L96.7416 52.3019Z" fill="#D7D9FF"/>
<path fill-rule="evenodd" clip-rule="evenodd" d="M16.7043 38.5341C16.7043 40.7347 16.7601 42.5699 15.6438 44.5242C14.7428 46.1131 13.3156 47.0903 11.7209 47.0903C9.54417 47.0903 8.2764 45.4379 8.2764 42.9989C8.2764 38.1845 12.606 37.3106 16.7043 37.3106V38.5341ZM22.4212 52.3019C22.0465 52.6356 21.5043 52.6594 21.0817 52.437C19.2 50.8799 18.8651 50.1569 17.8285 48.6713C14.7189 51.8332 12.5183 52.7786 8.48371 52.7786C3.71561 52.7786 0 49.8471 0 43.9761C0 39.3921 2.49568 36.2699 6.04385 34.7445C9.12158 33.394 13.4193 33.1556 16.7043 32.7822V32.0513C16.7043 30.7087 16.808 29.1198 16.0186 27.9599C15.3249 26.9192 14.0013 26.4902 12.8372 26.4902C10.6764 26.4902 8.74683 27.5945 8.2764 29.8825C8.18072 30.3909 7.80597 30.8914 7.29567 30.9153L1.79402 30.3274C1.33156 30.2241 0.82126 29.8507 0.948835 29.1436C2.21661 22.502 8.23653 20.5 13.6266 20.5C16.3854 20.5 19.9893 21.2309 22.1661 23.3124C24.9249 25.8784 24.6618 29.3025 24.6618 33.0285V41.831C24.6618 44.4766 25.7621 45.6365 26.7986 47.0665C27.1654 47.5749 27.2451 48.1867 26.7827 48.568C25.6265 49.5293 23.5694 51.3168 22.4372 52.3178L22.4212 52.3019Z" fill="#D7D9FF"/>
</svg>
