<svg width="184" height="71" viewBox="0 0 184 71" fill="none" xmlns="http://www.w3.org/2000/svg">
<path fill-rule="evenodd" clip-rule="evenodd" d="M178.142 47.0614C178.252 48.3212 179.26 49.9248 181.007 49.9248H182.027C182.424 49.9248 182.749 49.6003 182.749 49.204V26.739H182.744C182.724 26.3605 182.411 26.0574 182.027 26.0574H178.863C178.479 26.0574 178.167 26.3605 178.147 26.739H178.142V28.5644C176.202 26.174 173.145 25.1818 170.08 25.1818C163.11 25.1818 157.461 30.8358 157.461 37.8107C157.461 44.7861 163.11 50.4401 170.08 50.4401C173.145 50.4401 176.487 49.2502 178.142 47.0586V47.0614ZM170.091 46.0202C165.659 46.0202 162.066 42.345 162.066 37.8107C162.066 33.2772 165.659 29.6019 170.091 29.6019C174.525 29.6019 178.117 33.2772 178.117 37.8107C178.117 42.345 174.525 46.0202 170.091 46.0202Z" fill="#D7D9FF"/>
<path fill-rule="evenodd" clip-rule="evenodd" d="M153.458 36.2093C153.458 29.6565 149.328 25.2359 142.74 25.2359C139.596 25.2359 137.018 27.0556 136.108 28.6187C135.911 27.3965 135.263 26.1117 133.252 26.1117H132.227C131.831 26.1117 131.507 26.4365 131.507 26.8328V47.1176C131.507 47.1182 131.507 47.1197 131.507 47.1207V49.2997H131.511C131.532 49.6775 131.845 49.981 132.228 49.981H135.393C135.441 49.981 135.489 49.9752 135.535 49.9663C135.556 49.9622 135.575 49.954 135.596 49.9482C135.619 49.941 135.644 49.9354 135.666 49.9261C135.694 49.9145 135.72 49.8988 135.746 49.8842C135.759 49.8763 135.772 49.8708 135.785 49.8626C135.816 49.8422 135.845 49.8176 135.873 49.7926C135.878 49.788 135.883 49.7849 135.888 49.7806C135.919 49.7501 135.948 49.7166 135.973 49.6817C136.053 49.5728 136.101 49.4411 136.109 49.2997H136.113V36.029C136.113 32.5098 138.964 29.6565 142.481 29.6565C145.998 29.6565 148.849 32.5098 148.849 36.029L148.852 47.1215L148.852 47.1176C148.852 47.1275 148.854 47.1375 148.854 47.148V49.2997H148.858C148.879 49.6775 149.192 49.981 149.574 49.981H152.74C152.788 49.981 152.836 49.9752 152.881 49.9663C152.9 49.9629 152.917 49.9553 152.936 49.9502C152.962 49.9426 152.988 49.9362 153.013 49.9261C153.039 49.9154 153.063 49.9005 153.087 49.8866C153.102 49.8782 153.118 49.8721 153.132 49.8626C153.161 49.8433 153.188 49.8201 153.214 49.7972C153.221 49.791 153.229 49.7864 153.235 49.7801C153.265 49.7511 153.292 49.7199 153.316 49.6871C153.318 49.6846 153.32 49.6826 153.322 49.6802C153.4 49.5723 153.447 49.4421 153.456 49.3015C153.456 49.3005 153.456 49.2997 153.456 49.2997H153.46L153.458 36.2093Z" fill="#D7D9FF"/>
<path fill-rule="evenodd" clip-rule="evenodd" d="M120.495 47.0613C120.606 48.3211 121.614 49.9247 123.359 49.9247H124.381C124.777 49.9247 125.101 49.6002 125.101 49.2039V26.739H125.097C125.076 26.3605 124.763 26.0574 124.381 26.0574H121.216C120.833 26.0574 120.52 26.3605 120.499 26.739H120.495V28.5644C118.556 26.174 115.498 25.1818 112.432 25.1818C105.463 25.1818 99.8136 30.8357 99.8136 37.8108C99.8136 44.786 105.463 50.4402 112.432 50.4402C115.498 50.4402 118.84 49.2503 120.495 47.0585L120.495 47.0613ZM112.444 46.0201C108.012 46.0201 104.419 42.3451 104.419 37.8108C104.419 33.2772 108.012 29.6019 112.444 29.6019C116.877 29.6019 120.47 33.2772 120.47 37.8108C120.47 42.3451 116.877 46.0201 112.444 46.0201Z" fill="#D7D9FF"/>
<path fill-rule="evenodd" clip-rule="evenodd" d="M81.096 43.8439C83.209 45.3088 85.5154 46.0204 87.7318 46.0204C89.8433 46.0204 92.0262 44.9249 92.0262 43.0181C92.0262 40.4724 87.2696 40.0763 84.2811 39.0598C81.2919 38.0433 78.7175 35.942 78.7175 32.5391C78.7175 27.332 83.3535 25.1815 87.6806 25.1815C90.4221 25.1815 93.2508 26.0862 95.0847 27.3823C95.7162 27.8612 95.3316 28.4111 95.3316 28.4111L93.581 30.9132C93.3843 31.1951 93.0402 31.4386 92.5465 31.1335C92.0525 30.8287 90.3204 29.6017 87.6806 29.6017C85.0404 29.6017 83.4502 30.8218 83.4502 32.3341C83.4502 34.1476 85.517 34.718 87.9379 35.3361C92.1568 36.4742 96.7589 37.8422 96.7589 43.0181C96.7589 47.6059 92.4709 50.4411 87.7318 50.4411C84.1405 50.4411 81.0828 49.4166 78.5184 47.5333C77.9842 46.9982 78.3573 46.5013 78.3573 46.5013L80.0993 44.0118C80.4538 43.5464 80.9006 43.7087 81.096 43.8439Z" fill="#D7D9FF"/>
<path fill-rule="evenodd" clip-rule="evenodd" d="M68.9278 47.0613C69.0385 48.3211 70.0462 49.9247 71.7919 49.9247H72.8135C73.2094 49.9247 73.5339 49.6002 73.5339 49.2039V26.739H73.5295C73.5087 26.3605 73.1961 26.0574 72.8135 26.0574H69.6483C69.2655 26.0574 68.9528 26.3605 68.9316 26.739H68.9278V28.5644C66.9885 26.174 63.931 25.1818 60.865 25.1818C53.8958 25.1818 48.2461 30.8357 48.2461 37.8108C48.2461 44.786 53.8958 50.4402 60.865 50.4402C63.931 50.4402 67.2724 49.2503 68.9273 47.0585L68.9278 47.0613ZM60.8773 46.0201C56.4449 46.0201 52.8517 42.3451 52.8517 37.8108C52.8517 33.2772 56.4449 29.6019 60.8773 29.6019C65.3096 29.6019 68.9025 33.2772 68.9025 37.8108C68.9025 42.3451 65.3096 46.0201 60.8773 46.0201Z" fill="#D7D9FF"/>
<path fill-rule="evenodd" clip-rule="evenodd" d="M30.5549 38.6714C25.865 38.6714 22.0629 42.4734 22.0629 47.1638C22.0629 51.8538 25.865 55.6558 30.5549 55.6558C35.245 55.6558 39.047 51.8538 39.047 47.1638C39.047 42.4734 35.245 38.6714 30.5549 38.6714ZM8.49202 38.6722C3.80205 38.6722 0 42.4734 0 47.1638C0 51.8538 3.80205 55.6558 8.49202 55.6558C13.1822 55.6558 16.9844 51.8538 16.9844 47.1638C16.9844 42.4734 13.1822 38.6722 8.49202 38.6722ZM28.0154 28.0561C28.0154 32.7465 24.2136 36.5489 19.5235 36.5489C14.8334 36.5489 11.0315 32.7465 11.0315 28.0561C11.0315 23.3667 14.8334 19.5643 19.5235 19.5643C24.2136 19.5643 28.0154 23.3667 28.0154 28.0561Z" fill="#D7D9FF"/>
</svg>
