<svg width="30" height="30" viewBox="0 0 30 30" fill="none" xmlns="http://www.w3.org/2000/svg">
<rect opacity="0.2" width="30" height="30" rx="15" fill="white" fill-opacity="0.1"/>
<rect x="1.33301" y="1.3335" width="27.3333" height="27.3333" rx="13.6667" fill="#070824"/>
<rect opacity="0.5" x="2.66699" y="2.66699" width="24.6667" height="24.6667" rx="12.3333" fill="white" fill-opacity="0.1"/>
<rect x="4" y="3.99951" width="22" height="22" rx="11" fill="#93F2FF" fill-opacity="0.1"/>
<path d="M13.4766 13.75L13.5 16.375C13.5 16.7969 13.1484 17.125 12.75 17.125H12.375C11.5312 17.125 10.875 16.4688 10.875 15.625V14.5234C10.875 13.6797 11.5312 13 12.375 13H12.7266C13.125 13 13.4766 13.3516 13.4766 13.75ZM15 8.5C18.3516 8.5 20.8828 11.3125 21 14.5V17.875C21 19.0234 20.0625 19.9375 18.9375 19.9375H16.3359C16.1484 20.2891 15.7734 20.5 15.375 20.5H14.6016C13.9219 20.5 13.3828 19.8906 13.5 19.1641C13.6172 18.625 14.1094 18.25 14.6484 18.25H15.375C15.7734 18.25 16.1484 18.4844 16.3359 18.8125H18.9375C19.4531 18.8125 19.875 18.4141 19.875 17.875V14.5C19.875 11.8281 17.6719 9.64844 15 9.64844C12.3047 9.64844 10.125 11.8281 10.125 14.5V15.4375C10.125 15.7656 9.82031 16 9.53906 16C9.23438 16 9 15.7656 9 15.4375V14.5C9.09375 11.3125 11.625 8.5 15 8.5ZM17.625 17.125H17.25C16.8281 17.125 16.5 16.7969 16.5 16.375V13.7734C16.5 13.3516 16.8281 13 17.25 13H17.625C18.4453 13 19.125 13.6797 19.125 14.5234V15.625C19.125 16.4688 18.4453 17.125 17.625 17.125Z" fill="#93F2FF"/>
</svg>
