<svg width="184" height="61" viewBox="0 0 184 61" fill="none" xmlns="http://www.w3.org/2000/svg">
<path d="M13.7439 16.2135C21.3183 16.2135 27.4878 22.383 27.4878 30.0185C27.4878 37.6539 21.3183 43.8234 13.7439 43.8234C6.16947 43.8234 0 37.715 0 30.0185C0 22.3219 6.16947 16.2135 13.7439 16.2135ZM121.496 15.9081V40.0973C121.496 41.9298 122.229 42.4185 123.634 42.785L123.695 43.0904H115.937V40.0973C115.021 42.2963 113.127 43.6402 110.684 43.6402C106.53 43.6402 103.782 39.853 103.782 34.2332C103.782 31.0569 104.698 28.3692 106.408 26.3534C108.057 24.3987 110.318 23.3603 112.822 23.3603C114.044 23.3603 115.082 23.6047 115.937 24.1544V20.8559C115.937 20.1229 115.754 19.6342 115.387 19.2677C114.899 18.8401 114.105 18.6569 112.883 18.779H112.822V18.4736L121.496 15.9081ZM150.938 23.4214V40.0973C150.938 41.9298 151.671 42.4185 153.076 42.785V43.0904H145.319V40.0362C144.402 42.2352 142.387 43.6402 140.126 43.6402C137.439 43.6402 135.728 42.4185 135.056 40.0362L134.934 39.4254C134.812 38.8145 134.751 38.2037 134.751 37.5929V28.6746C134.751 26.7199 134.323 26.1091 132.613 25.9869H132.552V25.6815L140.31 23.4214V37.4707C140.31 39.5475 141.226 40.7081 142.936 40.7081C143.975 40.7081 144.83 40.1584 145.319 39.2421V28.6746C145.319 26.6588 144.952 26.048 143.547 25.9258H143.486V25.6204L150.938 23.4214ZM94.9244 23.3603C97.0012 23.3603 99.017 24.0933 100.361 25.3761C101.888 26.8421 102.682 28.98 102.743 31.7899V31.851H91.0761C90.8317 35.8825 93.3362 39.181 96.6347 39.3032C99.017 39.4865 101.094 38.0204 102.254 35.6382L102.56 35.7603C101.888 40.2195 99.2613 43.5791 94.68 43.5791C89.4879 43.5791 86.5559 39.2421 86.4337 33.8057V32.4007C86.678 30.0185 87.411 27.8805 88.6938 26.2923C89.4879 25.315 90.4042 24.582 91.5037 24.0933C92.4199 23.6047 93.7638 23.3603 94.8633 23.3603H94.9244ZM175.738 23.4214C179.037 23.4214 181.053 25.4983 181.053 29.0411V40.4027C181.053 41.7466 181.663 42.4185 183.191 42.785H183.252V43.0904H175.433V29.2244C175.433 27.0253 174.639 25.9258 172.99 25.9258C171.646 25.9258 170.974 26.9032 170.607 27.7584C170.668 28.1859 170.729 28.6135 170.729 29.0411V40.586C170.729 41.9909 171.157 42.4796 172.379 42.785H172.44V43.0904H165.171V29.2244C165.171 27.0253 164.316 25.9258 162.727 25.9258C161.445 25.9258 160.773 26.8421 160.467 27.5751V40.6471C160.467 42.052 160.895 42.5407 162.117 42.8461H162.178V43.1515H154.909V28.6135C154.909 26.6588 154.42 26.048 152.771 25.9258H152.71V25.6204L160.467 23.4825V26.7199C161.261 24.6431 163.094 23.4214 165.415 23.4214C168.042 23.4214 169.874 24.7042 170.485 27.0253C171.279 24.8263 173.295 23.4214 175.738 23.4214ZM64.3213 17.1298L71.5903 34.1722L78.8593 17.1298H86.678L86.617 17.4352L86.5282 17.4549C85.1812 17.7619 84.479 18.2657 84.479 19.9396V40.7081C84.6012 42.052 85.3342 42.4796 86.617 42.785H86.678V43.0904H76.7214V42.785H76.7824C78.0652 42.4796 78.7982 42.052 78.9204 40.7081V20.4894L69.3302 43.0293H68.7805L59.4346 21.1002V40.2195C59.4346 41.9298 60.1676 42.4185 61.5726 42.7239H61.6336V43.0293H55.8918V42.7239H55.9528C57.3578 42.4185 58.0908 41.9298 58.0908 40.2195V19.9396C58.0908 18.2293 57.3578 17.7406 55.9528 17.4352H55.8918V17.1298H64.3213ZM130.964 23.4214V40.0973L130.965 40.2101C130.995 41.9501 131.726 42.4261 133.102 42.785L133.163 43.0904H125.405V28.6746C125.405 26.7199 124.978 26.1091 123.267 25.9869H123.206V25.6815L130.964 23.4214ZM35.7341 17.0076C39.4602 17.0076 42.5755 22.8716 42.5755 30.0185C42.5755 37.2264 39.5213 43.0293 35.7341 43.0293C31.9469 43.0293 28.8927 37.2264 28.8927 30.0185C28.8927 22.8106 31.9469 17.0076 35.7341 17.0076ZM46.2405 18.3514C47.6454 18.3514 48.6839 23.6046 48.6839 30.0185C48.6839 36.4323 47.5844 41.6855 46.2405 41.6855C44.9101 41.6855 43.8192 36.5368 43.7975 30.2105L43.7971 30.0185C43.7971 23.6046 44.8967 18.3514 46.2405 18.3514ZM113.738 24.4598C111.295 24.4598 109.768 27.6973 109.768 32.7061C109.768 35.0884 110.195 37.1653 110.928 38.5702C111.6 39.914 112.578 40.6471 113.677 40.6471C114.777 40.6471 115.571 40.1584 115.937 39.2421V25.8037C115.51 24.9485 114.716 24.4598 113.738 24.4598ZM94.8633 24.5209C92.6643 24.5209 91.3815 27.1475 91.1982 30.8125V30.8736H97.8564C97.9786 28.0027 97.4899 26.1091 96.5736 25.1928C96.085 24.7652 95.5352 24.5209 94.8633 24.5209ZM127.971 16.0913C129.742 16.0913 131.086 17.4352 131.086 19.2066C131.086 20.978 129.742 22.3219 127.971 22.3219C126.199 22.3219 124.855 20.978 124.855 19.2066C124.855 17.4352 126.199 16.0913 127.971 16.0913Z" fill="#D7D9FF"/>
</svg>
