<svg width="84" height="96" viewBox="0 0 84 96" fill="none" xmlns="http://www.w3.org/2000/svg">
<path d="M16.8 38.3438V60.0563C16.8 62.9438 14.5312 65.2501 11.6437 65.2501C8.775 65.2501 6 62.9251 6 60.0563V38.3438C6 35.5126 8.775 33.1876 11.6437 33.1876C14.475 33.1876 16.8 35.5126 16.8 38.3438ZM18.825 67.7813C18.825 70.8563 21.3 73.3313 24.375 73.3313H28.1062L28.1625 84.7876C28.1625 91.7063 38.5125 91.6501 38.5125 84.7876V73.3313H45.4875V84.7876C45.4875 91.6688 55.8938 91.6876 55.8938 84.7876V73.3313H59.6812C62.7187 73.3313 65.1938 70.8563 65.1938 67.7813V34.1438H18.825V67.7813ZM65.325 32.3251H18.6188C18.6188 24.3001 23.4187 17.3251 30.5437 13.6876L26.9625 7.06884C26.4375 6.15009 27.7687 5.56884 28.2188 6.35634L31.8562 13.0313C38.4 10.1251 45.9188 10.2751 52.1625 13.0313L55.7812 6.37509C56.25 5.56884 57.5625 6.16884 57.0375 7.08759L53.4563 13.6876C60.525 17.3251 65.325 24.3001 65.325 32.3251ZM33.3187 21.9188C33.3187 20.8501 32.4562 19.9501 31.35 19.9501C30.2812 19.9501 29.4375 20.8501 29.4375 21.9188C29.4375 22.9876 30.3 23.8876 31.35 23.8876C32.4562 23.8876 33.3187 22.9876 33.3187 21.9188ZM54.5813 21.9188C54.5813 20.8501 53.7188 19.9501 52.6687 19.9501C51.5625 19.9501 50.7 20.8501 50.7 21.9188C50.7 22.9876 51.5625 23.8876 52.6687 23.8876C53.7188 23.8876 54.5813 22.9876 54.5813 21.9188ZM72.3562 33.1876C69.525 33.1876 67.2 35.4563 67.2 38.3438V60.0563C67.2 62.9438 69.525 65.2501 72.3562 65.2501C75.2438 65.2501 78 62.9251 78 60.0563V38.3438C78 35.4563 75.225 33.1876 72.3562 33.1876Z" fill="#060607"/>
</svg>
