<svg width="96" height="96" viewBox="0 0 96 96" fill="none" xmlns="http://www.w3.org/2000/svg">
<path d="M86.7103 74.7626C85.2598 78.1143 83.5426 81.1992 81.5523 84.0364C78.8405 87.903 76.6198 90.5794 74.9084 92.0663C72.2555 94.5059 69.413 95.7551 66.3693 95.8263C64.1842 95.8263 61.5489 95.2048 58.4815 93.9434C55.4039 92.6877 52.5757 92.0663 49.9897 92.0663C47.2776 92.0663 44.3688 92.6877 41.2575 93.9434C38.1415 95.2048 35.6313 95.8618 33.712 95.9273C30.7932 96.0509 27.8839 94.7661 24.9798 92.0663C23.1263 90.4493 20.808 87.6776 18.0306 83.7519C15.0508 79.5592 12.601 74.6975 10.6818 69.1547C8.62633 63.1678 7.59595 57.3704 7.59595 51.7578C7.59595 45.3286 8.9852 39.7834 11.7678 35.1366C13.9547 31.4042 16.8641 28.4599 20.5054 26.2985C24.1467 24.1371 28.081 23.0356 32.318 22.9651C34.6364 22.9651 37.6766 23.6823 41.4547 25.0916C45.2221 26.5057 47.6411 27.2229 48.7017 27.2229C49.4946 27.2229 52.182 26.3843 56.7375 24.7126C61.0456 23.1623 64.6815 22.5204 67.6602 22.7733C75.7315 23.4246 81.7955 26.6064 85.8279 32.3387C78.6095 36.7125 75.0387 42.8385 75.1097 50.6972C75.1749 56.8185 77.3955 61.9124 81.76 65.957C83.7374 67.8342 85.9467 69.285 88.404 70.3154C87.8715 71.8609 87.3083 73.3414 86.7103 74.7626ZM68.1991 1.91925C68.1991 6.7171 66.4462 11.1968 62.9524 15.3433C58.7361 20.2725 53.6364 23.1209 48.106 22.6714C48.0355 22.0958 47.9947 21.49 47.9947 20.8534C47.9947 16.2475 49.9997 11.3182 53.5606 7.2879C55.3383 5.24726 57.5992 3.55051 60.3409 2.19698C63.0768 0.863636 65.6646 0.126271 68.0984 0C68.1694 0.641398 68.1991 1.28284 68.1991 1.91918V1.91925Z" fill="#060607"/>
</svg>
