<svg width="16" height="11" viewBox="0 0 16 11" fill="none" xmlns="http://www.w3.org/2000/svg">
<path d="M6.44444 4.60498C7.32778 4.18276 7.78889 3.54387 7.78889 2.54942C7.78889 0.588312 6.32778 0.110535 4.64167 0.110535H0V9.95498H4.77222C6.56111 9.95498 8.24167 9.09665 8.24167 7.09665C8.24167 5.86053 7.65556 4.94665 6.44444 4.60498ZM2.16389 1.79109H4.19444C4.975 1.79109 5.67778 2.01053 5.67778 2.91609C5.67778 3.7522 5.13056 4.08831 4.35833 4.08831H2.16389V1.79109ZM4.47778 8.28276H2.16389V5.57165H4.52222C5.475 5.57165 6.07778 5.96887 6.07778 6.9772C6.07778 7.97165 5.35833 8.28276 4.47778 8.28276ZM14.4361 1.59665H10.4444V0.627201H14.4361V1.59665ZM16 6.49387C16 4.38554 14.7667 2.6272 12.5306 2.6272C10.3583 2.6272 8.88333 4.26053 8.88333 6.39942C8.88333 8.61887 10.2806 10.1411 12.5306 10.1411C14.2333 10.1411 15.3361 9.37442 15.8667 7.74387H14.1389C13.9528 8.3522 13.1861 8.67442 12.5917 8.67442C11.4444 8.67442 10.8417 8.0022 10.8417 6.86053H15.9833C15.9917 6.74387 16 6.61887 16 6.49387ZM10.8444 5.6272C10.9083 4.69109 11.5306 4.10498 12.4694 4.10498C13.4528 4.10498 13.9472 4.68276 14.0306 5.6272H10.8444Z" fill="white"/>
</svg>
