<svg width="128" height="56" viewBox="0 0 128 56" fill="none" xmlns="http://www.w3.org/2000/svg">
<line x1="23" y1="46" x2="-8.74228e-08" y2="46" stroke="white" stroke-width="2"/>
<line x1="128" y1="46" x2="105" y2="46" stroke="white" stroke-width="2"/>
<path d="M41.2753 43.0895C41.1688 42.7443 41.0218 42.4354 40.8343 42.1626C40.651 41.8857 40.4295 41.6491 40.1695 41.4531C39.9138 41.2571 39.6198 41.1101 39.2874 41.0121C38.955 40.9098 38.5928 40.8587 38.2008 40.8587C37.4976 40.8587 36.8712 41.0355 36.3215 41.3892C35.7718 41.7429 35.3393 42.2628 35.0239 42.9489C34.7128 43.6307 34.5573 44.4616 34.5573 45.4418C34.5573 46.4304 34.7128 47.2678 35.0239 47.9538C35.335 48.6399 35.7675 49.1619 36.3215 49.5199C36.8755 49.8736 37.5189 50.0504 38.2519 50.0504C38.9167 50.0504 39.492 49.9226 39.9778 49.6669C40.4678 49.4112 40.8449 49.049 41.1091 48.5803C41.3733 48.1072 41.5055 47.5533 41.5055 46.9183L42.0424 47.0014H38.4884V45.1477H43.8002V46.7202C43.8002 47.8409 43.5616 48.8104 43.0843 49.6286C42.607 50.4467 41.9508 51.0774 41.1155 51.5206C40.2803 51.9595 39.3215 52.179 38.2391 52.179C37.0331 52.179 35.9742 51.9084 35.0623 51.3672C34.1546 50.8217 33.4451 50.0483 32.9337 49.0469C32.4266 48.0412 32.1731 46.848 32.1731 45.4673C32.1731 44.4105 32.3222 43.4666 32.6205 42.6357C32.9231 41.8047 33.3449 41.0994 33.8861 40.5199C34.4273 39.9361 35.0623 39.4929 35.791 39.1903C36.5197 38.8835 37.3123 38.7301 38.1688 38.7301C38.8932 38.7301 39.5687 38.8366 40.1951 39.0497C40.8215 39.2585 41.3776 39.5568 41.8634 39.9446C42.3535 40.3324 42.7562 40.7926 43.0715 41.3253C43.3868 41.858 43.5935 42.446 43.6915 43.0895H41.2753ZM61.3908 45.4545C61.3908 46.8651 61.1266 48.0732 60.5982 49.0788C60.074 50.0803 59.3581 50.8473 58.4504 51.38C57.547 51.9126 56.5222 52.179 55.3759 52.179C54.2296 52.179 53.2026 51.9126 52.2949 51.38C51.3915 50.843 50.6756 50.0739 50.1472 49.0724C49.623 48.0668 49.361 46.8608 49.361 45.4545C49.361 44.044 49.623 42.8381 50.1472 41.8366C50.6756 40.831 51.3915 40.0618 52.2949 39.5291C53.2026 38.9964 54.2296 38.7301 55.3759 38.7301C56.5222 38.7301 57.547 38.9964 58.4504 39.5291C59.3581 40.0618 60.074 40.831 60.5982 41.8366C61.1266 42.8381 61.3908 44.044 61.3908 45.4545ZM59.0066 45.4545C59.0066 44.4616 58.851 43.6243 58.5399 42.9425C58.2331 42.2564 57.807 41.7386 57.2615 41.3892C56.7161 41.0355 56.0875 40.8587 55.3759 40.8587C54.6642 40.8587 54.0357 41.0355 53.4902 41.3892C52.9448 41.7386 52.5165 42.2564 52.2054 42.9425C51.8986 43.6243 51.7452 44.4616 51.7452 45.4545C51.7452 46.4474 51.8986 47.2869 52.2054 47.973C52.5165 48.6548 52.9448 49.1726 53.4902 49.5263C54.0357 49.8757 54.6642 50.0504 55.3759 50.0504C56.0875 50.0504 56.7161 49.8757 57.2615 49.5263C57.807 49.1726 58.2331 48.6548 58.5399 47.973C58.851 47.2869 59.0066 46.4474 59.0066 45.4545ZM75.4849 38.9091H77.8564V47.4616C77.8564 48.3991 77.6348 49.2237 77.1916 49.9354C76.7527 50.647 76.1348 51.2031 75.3379 51.6037C74.541 52 73.6099 52.1982 72.5446 52.1982C71.475 52.1982 70.5417 52 69.7449 51.6037C68.948 51.2031 68.3301 50.647 67.8912 49.9354C67.4523 49.2237 67.2328 48.3991 67.2328 47.4616V38.9091H69.6042V47.2635C69.6042 47.8089 69.7236 48.2947 69.9622 48.7209C70.2051 49.147 70.546 49.4815 70.9849 49.7244C71.4238 49.9631 71.9437 50.0824 72.5446 50.0824C73.1454 50.0824 73.6653 49.9631 74.1042 49.7244C74.5474 49.4815 74.8883 49.147 75.127 48.7209C75.3656 48.2947 75.4849 47.8089 75.4849 47.2635V38.9091ZM88.47 52H84.034V38.9091H88.5595C89.8592 38.9091 90.9757 39.1712 91.909 39.6953C92.8465 40.2152 93.5666 40.9631 94.0695 41.9389C94.5723 42.9148 94.8237 44.0824 94.8237 45.4418C94.8237 46.8054 94.5702 47.9773 94.0631 48.9574C93.5602 49.9375 92.8337 50.6896 91.8834 51.2138C90.9374 51.7379 89.7996 52 88.47 52ZM86.4054 49.9482H88.355C89.2669 49.9482 90.0276 49.782 90.6369 49.4496C91.2463 49.1129 91.7044 48.6122 92.0112 47.9474C92.3181 47.2784 92.4715 46.4432 92.4715 45.4418C92.4715 44.4403 92.3181 43.6094 92.0112 42.9489C91.7044 42.2841 91.2506 41.7876 90.6497 41.4595C90.0531 41.1271 89.3117 40.9609 88.4253 40.9609H86.4054V49.9482Z" fill="white"/>
<path d="M7.416 1.504L15.156 20.584L12.132 19.972L19.152 1.504H25.344L13.248 29.224L1.152 1.504H7.416ZM28.1278 1.504H33.3478V28H28.1278V1.504ZM52.5344 7.912C51.5264 7.36 50.4944 6.904 49.4384 6.544C48.4064 6.184 47.4344 6.004 46.5224 6.004C45.3944 6.004 44.5064 6.232 43.8584 6.688C43.2104 7.144 42.8864 7.828 42.8864 8.74C42.8864 9.364 43.1264 9.928 43.6064 10.432C44.1104 10.912 44.7464 11.344 45.5144 11.728C46.3064 12.112 47.1224 12.46 47.9624 12.772C48.7304 13.06 49.4864 13.408 50.2304 13.816C50.9984 14.2 51.6824 14.692 52.2824 15.292C52.8824 15.868 53.3624 16.6 53.7224 17.488C54.0824 18.352 54.2624 19.42 54.2624 20.692C54.2624 22.036 53.9144 23.284 53.2184 24.436C52.5224 25.588 51.5024 26.524 50.1584 27.244C48.8144 27.94 47.1584 28.288 45.1904 28.288C44.1824 28.288 43.1504 28.192 42.0944 28C41.0624 27.784 40.0424 27.472 39.0344 27.064C38.0264 26.632 37.0544 26.092 36.1184 25.444L38.4224 21.376C39.0464 21.832 39.7184 22.24 40.4384 22.6C41.1824 22.936 41.9264 23.2 42.6704 23.392C43.4144 23.584 44.0984 23.68 44.7224 23.68C45.3464 23.68 45.9704 23.596 46.5944 23.428C47.2424 23.236 47.7704 22.924 48.1784 22.492C48.6104 22.06 48.8264 21.46 48.8264 20.692C48.8264 20.164 48.6464 19.684 48.2864 19.252C47.9504 18.82 47.4824 18.424 46.8824 18.064C46.3064 17.704 45.6704 17.392 44.9744 17.128C44.1584 16.816 43.3184 16.456 42.4544 16.048C41.5904 15.64 40.7744 15.148 40.0064 14.572C39.2624 13.972 38.6504 13.24 38.1704 12.376C37.7144 11.488 37.4864 10.408 37.4864 9.136C37.4864 7.6 37.8224 6.268 38.4944 5.14C39.1904 4.012 40.1624 3.124 41.4104 2.476C42.6584 1.804 44.0984 1.432 45.7304 1.36C47.8664 1.36 49.5944 1.612 50.9144 2.116C52.2584 2.62 53.4584 3.22 54.5144 3.916L52.5344 7.912ZM79.8587 1.504V28H74.6387V17.236H62.7947V28H57.5747V1.504H62.7947V12.196H74.6387V1.504H79.8587ZM81.8961 28L93.8481 0.459998H94.1361L106.088 28H100.04L92.4081 8.632L96.1881 6.04L87.0441 28H81.8961ZM90.0681 18.424H98.0241L99.8601 22.816H88.4481L90.0681 18.424ZM108.15 1.504H113.37V22.96H125.826V28H108.15V1.504Z" fill="white"/>
</svg>
