<svg width="16" height="16" viewBox="0 0 16 16" fill="none" xmlns="http://www.w3.org/2000/svg">
<path d="M7.75 0C3.47662 0 0 3.47662 0 7.75C0 12.0234 3.47662 15.5 7.75 15.5C12.0234 15.5 15.5 12.0234 15.5 7.75C15.5 3.47662 12.0234 0 7.75 0ZM12.8741 3.57394C13.796 4.70037 14.3543 6.13509 14.3689 7.69753C14.1507 7.65137 11.9621 7.20747 9.75947 7.48447C9.57972 7.04569 9.41006 6.65969 9.17769 6.18403C11.6252 5.18475 12.7345 3.76272 12.8741 3.57394ZM12.1382 2.80844C12.0191 2.97803 11.0226 4.31738 8.66875 5.19966C7.584 3.20666 6.38172 1.56941 6.19875 1.32441C8.298 0.818375 10.5102 1.36409 12.1382 2.80844ZM4.93566 1.76938C5.11019 2.00872 6.29309 3.648 7.38994 5.59778C4.29347 6.42006 1.56619 6.40822 1.27013 6.40431C1.69938 4.35016 3.08369 2.64291 4.93566 1.76938ZM1.13031 7.76009C1.13031 7.69241 1.13166 7.62503 1.13369 7.55781C1.42331 7.56375 4.63119 7.60509 7.937 6.61575C8.1265 6.98662 8.30753 7.36309 8.47369 7.73916C6.07997 8.41338 3.90513 10.3494 2.83209 12.1862C1.77481 11.0127 1.13031 9.46031 1.13031 7.76009ZM3.68678 12.9824C4.37825 11.5688 6.25484 9.74419 8.92362 8.83375C9.853 11.2488 10.2373 13.2729 10.3358 13.8537C8.20728 14.7603 5.64781 14.5116 3.68678 12.9824ZM11.4487 13.2477C11.3808 12.845 11.0285 10.9071 10.1627 8.52787C12.237 8.19581 14.0595 8.73937 14.286 8.81084C13.9909 10.6527 12.9337 12.2435 11.4487 13.2477Z" fill="white"/>
</svg>
