<svg width="102" height="96" viewBox="0 0 102 96" fill="none" xmlns="http://www.w3.org/2000/svg">
<g clip-path="url(#clip0_111_816)">
<path d="M100.764 36.0586C100.259 37.3218 99.8617 38.621 99.3564 39.8842C98.9955 34.5789 98.1294 29.3097 96.4331 24.2932C95.2782 21.1894 93.9429 18.0857 91.6331 15.6676C91.9579 18.627 92.7158 21.5143 92.6437 24.5097C91.994 22.2361 91.2361 19.9263 89.8647 17.9774C86.9053 13.394 82.1053 10.2902 76.9805 8.63005C75.6452 8.19696 74.2376 7.94433 73.0467 7.22253C65.6843 2.92779 57.0948 0.798468 48.5775 1.01501C37.4978 1.15937 26.5985 5.52629 18.4782 13.0331C17.2151 14.224 16.0602 15.5233 14.797 16.7503C12.5955 14.1879 11.4767 10.9398 11.3324 7.58343C9.34741 9.27967 8.19252 11.7338 7.36245 14.1518C6.20756 17.5443 5.59403 21.1534 5.95493 24.7263C5.99102 25.5203 6.20756 26.3864 5.66621 27.0722C2.85117 31.1864 0.577486 35.8782 0.0361328 40.8947C0.938389 40.2812 1.80455 39.6315 2.70681 39.018C2.34591 40.8225 1.84064 42.627 1.55192 44.4676C0.288764 53.3097 1.91283 62.5128 6.13538 70.4165C10.7549 78.9338 17.9008 85.9714 26.3098 90.7714C35.7655 96.1488 47.0617 98.1338 57.8166 96.4015C67.2 94.8496 76.2948 90.7353 83.0076 83.9143C87.7715 79.0782 91.9219 73.6285 94.9174 67.5293C99.8256 57.8571 101.883 46.7774 100.764 36.0586ZM83.188 49.9173C82.2136 47.9323 81.7083 45.5864 79.8316 44.215C80.3008 49.1955 80.5173 54.2481 79.3985 59.1564C78.7128 62.4767 77.2331 65.6887 74.8151 68.1067C75.2482 65.7248 75.6452 63.3067 75.5008 60.8887C72 65.6165 67.7775 69.9834 62.4 72.5458C57.8527 74.7473 52.4752 74.6391 47.7113 73.1594C43.3805 71.7519 39.6271 69.0812 36.3068 66.0496H37.4617C40.7098 66.2661 43.994 65.797 47.0978 64.8947C50.2015 63.9925 52.5113 61.6827 55.2181 60.0586C56.4812 59.3007 58.0692 59.6255 59.4406 59.2285C60.3068 58.7594 60.5955 57.4962 59.8015 56.8105C57.7805 54.609 54.8572 52.8406 51.7895 53.2015C48.8301 53.6346 46.4121 55.6556 43.4888 56.3413C41.3955 56.7022 39.2662 56.0526 37.4256 55.1143C34.791 53.7789 32.8061 51.5413 30.9294 49.3398L30.0993 48.6541C30.0993 48.3293 30.0993 47.9684 30.1354 47.6436C30.3158 46.7413 30.8211 45.9473 31.2542 45.1173L31.7594 44.1067C34.6828 44.3233 37.57 44.7924 40.4211 45.5143C40.385 42.8075 40.2046 39.7398 38.5444 37.5022L39.1218 37.0691C40.9624 35.6255 42.6587 33.9293 44.7158 32.8105C45.5459 32.3774 46.3038 31.8 46.9173 31.1143L47.0617 29.8872H47.0256C47.0617 29.418 46.9895 28.9128 46.9895 28.4436C45.979 28.3353 44.9685 28.2631 43.9218 28.2631L41.1068 28.0827C40.8903 27.9383 40.6737 27.794 40.4572 27.6857C38.5444 26.4947 36.8843 24.9067 35.0797 23.5714L34.3579 22.9218L34.4662 21.9473C35.1519 17.4361 38.4722 13.8992 41.9369 11.1925C39.4827 11.5534 37.0647 12.2391 34.8632 13.3579C32.5534 14.4767 30.5685 16.1729 28.6196 17.8331C24.6858 16.8225 20.4632 17.4361 16.7098 18.8797C14.8692 19.7097 13.2091 20.9368 11.4046 21.8752C12.5594 20.7203 13.8948 19.818 15.194 18.8075C16.3489 17.9413 17.2151 16.7503 18.2256 15.7398C25.7324 8.01651 36.2346 3.36087 46.9534 2.81952C54.0632 2.45862 61.3895 3.57741 67.8136 6.71726C66.0813 6.64508 64.385 6.53681 62.6527 6.5729C66.5143 7.72779 71.0256 8.95486 73.191 12.7082C71.2061 12.7804 69.185 12.8165 67.2722 13.4661C72.794 15.5955 78.3519 18.23 82.4662 22.6331C84.9203 25.2676 86.6166 28.6962 86.5444 32.3774C85.2452 31.403 83.9098 30.5007 82.4662 29.7789C84.0181 36.3112 84.9925 43.2767 83.188 49.9173Z" fill="#060607"/>
</g>
<defs>
<clipPath id="clip0_111_816">
<rect width="101.053" height="96" fill="white"/>
</clipPath>
</defs>
</svg>
