<svg width="14" height="14" viewBox="0 0 14 14" fill="none" xmlns="http://www.w3.org/2000/svg">
<path d="M3.13357 13.9997H0.231067V4.65281H3.13357V13.9997ZM1.68075 3.37781C0.752629 3.37781 -0.000183105 2.60906 -0.000183105 1.68094C-0.000183099 1.23513 0.176915 0.807572 0.492152 0.492335C0.807389 0.177098 1.23494 0 1.68075 0C2.12657 0 2.55412 0.177098 2.86936 0.492335C3.18459 0.807572 3.36169 1.23513 3.36169 1.68094C3.36169 2.60906 2.60857 3.37781 1.68075 3.37781ZM13.9967 13.9997H11.1004V9.44969C11.1004 8.36531 11.0786 6.97469 9.59138 6.97469C8.08232 6.97469 7.85107 8.15281 7.85107 9.37156V13.9997H4.95169V4.65281H7.73544V5.92781H7.77607C8.16357 5.19344 9.11013 4.41844 10.5223 4.41844C13.4598 4.41844 13.9998 6.35281 13.9998 8.86531V13.9997H13.9967Z" fill="white"/>
</svg>
