<svg width="196" height="69" viewBox="0 0 196 69" fill="none" xmlns="http://www.w3.org/2000/svg">
<path d="M21 21H172C185.255 21 196 31.7452 196 45C196 58.2548 185.255 69 172 69H51C34.4315 69 21 55.5685 21 39V21Z" fill="#C7CA34"/>
<path d="M22 22H172C184.703 22 195 32.2974 195 45C195 57.7025 184.703 68 172 68H51C34.9837 68 22 55.0162 22 39V22Z" stroke="white" stroke-opacity="0.2" stroke-width="2"/>
<path d="M45.69 46.284C45.69 46.8 45.822 47.274 46.086 47.706C46.362 48.126 46.722 48.468 47.166 48.732C47.61 48.984 48.108 49.11 48.66 49.11C49.236 49.11 49.752 48.984 50.208 48.732C50.664 48.468 51.024 48.126 51.288 47.706C51.552 47.274 51.684 46.8 51.684 46.284V37.896H53.754V46.338C53.754 47.286 53.526 48.126 53.07 48.858C52.614 49.578 52.002 50.142 51.234 50.55C50.466 50.946 49.608 51.144 48.66 51.144C47.724 51.144 46.872 50.946 46.104 50.55C45.336 50.142 44.724 49.578 44.268 48.858C43.824 48.126 43.602 47.286 43.602 46.338V37.896H45.69V46.284ZM57.1418 37.896H59.2478V51H57.1418V37.896ZM68.2727 37.536C67.4207 39.84 66.5687 42.144 65.7167 44.448C64.8767 46.74 64.0307 49.038 63.1787 51.342H61.3607C62.2127 49.038 63.0587 46.74 63.8987 44.448C64.7507 42.144 65.6027 39.84 66.4547 37.536H68.2727ZM71.9341 46.284C71.9341 46.8 72.0661 47.274 72.3301 47.706C72.6061 48.126 72.9661 48.468 73.4101 48.732C73.8541 48.984 74.3521 49.11 74.9041 49.11C75.4801 49.11 75.9961 48.984 76.4521 48.732C76.9081 48.468 77.2681 48.126 77.5321 47.706C77.7961 47.274 77.9281 46.8 77.9281 46.284V37.896H79.9981V46.338C79.9981 47.286 79.7701 48.126 79.3141 48.858C78.8581 49.578 78.2461 50.142 77.4781 50.55C76.7101 50.946 75.8521 51.144 74.9041 51.144C73.9681 51.144 73.1161 50.946 72.3481 50.55C71.5801 50.142 70.9681 49.578 70.5121 48.858C70.0681 48.126 69.8461 47.286 69.8461 46.338V37.896H71.9341V46.284ZM82.3059 37.896H84.9699L93.5199 51H90.8199L82.3059 37.896ZM82.1259 51L86.7339 43.782L87.7239 45.852L84.7179 51H82.1259ZM87.8319 43.008L90.8199 37.896H93.3579L88.9299 44.808L87.8319 43.008ZM101.65 51V37.896H105.376C106.684 37.896 107.794 38.094 108.706 38.49C109.618 38.874 110.356 39.396 110.92 40.056C111.484 40.704 111.892 41.43 112.144 42.234C112.408 43.026 112.54 43.824 112.54 44.628C112.54 45.612 112.366 46.494 112.018 47.274C111.67 48.054 111.196 48.726 110.596 49.29C109.996 49.842 109.3 50.268 108.508 50.568C107.728 50.856 106.894 51 106.006 51H101.65ZM103.756 48.984H105.628C106.324 48.984 106.96 48.888 107.536 48.696C108.112 48.492 108.61 48.204 109.03 47.832C109.462 47.448 109.792 46.974 110.02 46.41C110.26 45.846 110.38 45.204 110.38 44.484C110.38 43.668 110.242 42.972 109.966 42.396C109.702 41.808 109.348 41.334 108.904 40.974C108.472 40.602 107.998 40.332 107.482 40.164C106.966 39.996 106.456 39.912 105.952 39.912H103.756V48.984ZM118.565 51.198C117.665 51.198 116.897 51.024 116.261 50.676C115.625 50.328 115.139 49.848 114.803 49.236C114.467 48.612 114.299 47.91 114.299 47.13C114.299 46.362 114.491 45.672 114.875 45.06C115.259 44.448 115.775 43.962 116.423 43.602C117.083 43.23 117.809 43.044 118.601 43.044C119.645 43.044 120.503 43.35 121.175 43.962C121.859 44.562 122.315 45.414 122.543 46.518L116.405 48.588L115.937 47.454L120.725 45.744L120.311 45.978C120.179 45.618 119.963 45.306 119.663 45.042C119.375 44.778 118.967 44.646 118.439 44.646C118.019 44.646 117.647 44.748 117.323 44.952C116.999 45.144 116.741 45.42 116.549 45.78C116.369 46.128 116.279 46.542 116.279 47.022C116.279 47.514 116.381 47.946 116.585 48.318C116.789 48.69 117.065 48.978 117.413 49.182C117.761 49.374 118.157 49.47 118.601 49.47C118.913 49.47 119.213 49.416 119.501 49.308C119.789 49.2 120.059 49.056 120.311 48.876L121.229 50.37C120.833 50.622 120.395 50.826 119.915 50.982C119.447 51.126 118.997 51.198 118.565 51.198ZM126.813 51.162C126.237 51.162 125.685 51.06 125.157 50.856C124.641 50.652 124.203 50.352 123.843 49.956L124.707 48.822C125.043 49.146 125.373 49.386 125.697 49.542C126.033 49.686 126.351 49.758 126.651 49.758C126.879 49.758 127.083 49.734 127.263 49.686C127.455 49.626 127.605 49.536 127.713 49.416C127.833 49.296 127.893 49.134 127.893 48.93C127.893 48.69 127.809 48.504 127.641 48.372C127.473 48.228 127.257 48.114 126.993 48.03C126.729 47.934 126.453 47.844 126.165 47.76C125.505 47.556 125.013 47.256 124.689 46.86C124.365 46.464 124.203 46.008 124.203 45.492C124.203 45.096 124.305 44.718 124.509 44.358C124.713 43.986 125.025 43.68 125.445 43.44C125.865 43.2 126.393 43.08 127.029 43.08C127.605 43.08 128.103 43.146 128.523 43.278C128.955 43.398 129.357 43.608 129.729 43.908L128.955 45.114C128.739 44.91 128.481 44.754 128.181 44.646C127.893 44.526 127.629 44.46 127.389 44.448C127.173 44.436 126.981 44.466 126.813 44.538C126.645 44.598 126.507 44.688 126.399 44.808C126.303 44.928 126.255 45.066 126.255 45.222C126.243 45.462 126.321 45.654 126.489 45.798C126.669 45.942 126.897 46.056 127.173 46.14C127.449 46.224 127.725 46.314 128.001 46.41C128.373 46.518 128.703 46.668 128.991 46.86C129.279 47.052 129.501 47.286 129.657 47.562C129.825 47.826 129.909 48.156 129.909 48.552C129.909 49.008 129.795 49.44 129.567 49.848C129.339 50.244 128.997 50.562 128.541 50.802C128.085 51.042 127.509 51.162 126.813 51.162ZM132.138 43.386H134.154V51H132.138V43.386ZM132.048 40.668C132.048 40.356 132.168 40.098 132.408 39.894C132.66 39.69 132.93 39.588 133.218 39.588C133.506 39.588 133.764 39.69 133.992 39.894C134.232 40.098 134.352 40.356 134.352 40.668C134.352 40.98 134.232 41.238 133.992 41.442C133.764 41.634 133.506 41.73 133.218 41.73C132.93 41.73 132.66 41.628 132.408 41.424C132.168 41.22 132.048 40.968 132.048 40.668ZM140.717 54.798C140.093 54.798 139.559 54.726 139.115 54.582C138.671 54.438 138.275 54.246 137.927 54.006C137.591 53.778 137.273 53.538 136.973 53.286L138.161 51.9C138.509 52.224 138.875 52.494 139.259 52.71C139.655 52.926 140.129 53.034 140.681 53.034C141.173 53.034 141.599 52.95 141.959 52.782C142.331 52.614 142.619 52.38 142.823 52.08C143.027 51.78 143.135 51.42 143.147 51V49.11L143.273 49.488C143.069 49.956 142.697 50.358 142.157 50.694C141.617 51.03 140.945 51.198 140.141 51.198C139.445 51.198 138.803 51.024 138.215 50.676C137.627 50.316 137.159 49.83 136.811 49.218C136.463 48.606 136.289 47.916 136.289 47.148C136.289 46.356 136.469 45.654 136.829 45.042C137.201 44.418 137.687 43.932 138.287 43.584C138.899 43.224 139.547 43.044 140.231 43.044C140.903 43.044 141.497 43.164 142.013 43.404C142.541 43.644 142.937 43.944 143.201 44.304L143.093 44.592L143.309 43.386H145.163V51.036C145.163 51.744 144.971 52.38 144.587 52.944C144.215 53.52 143.693 53.97 143.021 54.294C142.361 54.63 141.593 54.798 140.717 54.798ZM138.323 47.094C138.323 47.55 138.425 47.964 138.629 48.336C138.845 48.708 139.133 49.002 139.493 49.218C139.865 49.434 140.279 49.542 140.735 49.542C141.131 49.542 141.485 49.476 141.797 49.344C142.121 49.212 142.397 49.026 142.625 48.786C142.865 48.546 143.039 48.264 143.147 47.94V46.284C143.039 45.96 142.865 45.684 142.625 45.456C142.397 45.216 142.121 45.03 141.797 44.898C141.485 44.766 141.131 44.7 140.735 44.7C140.279 44.7 139.865 44.802 139.493 45.006C139.133 45.21 138.845 45.492 138.629 45.852C138.425 46.212 138.323 46.626 138.323 47.094ZM149.759 43.386L149.939 45.024L149.867 44.808C150.131 44.28 150.521 43.86 151.037 43.548C151.565 43.224 152.189 43.062 152.909 43.062C153.629 43.062 154.223 43.272 154.691 43.692C155.159 44.112 155.399 44.664 155.411 45.348V51H153.395V46.068C153.383 45.684 153.275 45.378 153.071 45.15C152.867 44.91 152.543 44.784 152.099 44.772C151.691 44.772 151.325 44.898 151.001 45.15C150.677 45.39 150.419 45.726 150.227 46.158C150.047 46.578 149.957 47.064 149.957 47.616V51H147.941V43.386H149.759ZM161.825 51.198C160.925 51.198 160.157 51.024 159.521 50.676C158.885 50.328 158.399 49.848 158.063 49.236C157.727 48.612 157.559 47.91 157.559 47.13C157.559 46.362 157.751 45.672 158.135 45.06C158.519 44.448 159.035 43.962 159.683 43.602C160.343 43.23 161.069 43.044 161.861 43.044C162.905 43.044 163.763 43.35 164.435 43.962C165.119 44.562 165.575 45.414 165.803 46.518L159.665 48.588L159.197 47.454L163.985 45.744L163.571 45.978C163.439 45.618 163.223 45.306 162.923 45.042C162.635 44.778 162.227 44.646 161.699 44.646C161.279 44.646 160.907 44.748 160.583 44.952C160.259 45.144 160.001 45.42 159.809 45.78C159.629 46.128 159.539 46.542 159.539 47.022C159.539 47.514 159.641 47.946 159.845 48.318C160.049 48.69 160.325 48.978 160.673 49.182C161.021 49.374 161.417 49.47 161.861 49.47C162.173 49.47 162.473 49.416 162.761 49.308C163.049 49.2 163.319 49.056 163.571 48.876L164.489 50.37C164.093 50.622 163.655 50.826 163.175 50.982C162.707 51.126 162.257 51.198 161.825 51.198ZM169.604 43.386L169.784 45.546L169.712 45.24C169.928 44.784 170.222 44.394 170.594 44.07C170.978 43.734 171.368 43.482 171.764 43.314C172.16 43.134 172.484 43.044 172.736 43.044L172.646 45.06C172.07 45.012 171.566 45.12 171.134 45.384C170.714 45.636 170.384 45.972 170.144 46.392C169.916 46.812 169.802 47.256 169.802 47.724V51H167.786V43.386H169.604Z" fill="#060607"/>
<path d="M3.49257 2.37748C6.41497 10.4542 11.1232 26.3482 12.0195 33.0615L15.2777 14.9216L33.8072 12.3922L3.49257 2.37748Z" fill="url(#paint0_linear_11_119)"/>
<path d="M12.0195 33.0615L11.2761 33.1608L12.7577 33.1941L12.0195 33.0615ZM3.49257 2.37748L3.72783 1.66533C3.45517 1.57526 3.15501 1.64877 2.95484 1.85465C2.75466 2.06053 2.68961 2.36263 2.78731 2.63266L3.49257 2.37748ZM33.8072 12.3922L33.9087 13.1353L34.0425 11.68L33.8072 12.3922ZM15.2777 14.9216L15.1762 14.1785L14.6359 14.2522L14.5395 14.789L15.2777 14.9216ZM12.7629 32.9623C11.8555 26.1653 7.12369 10.2086 4.19782 2.1223L2.78731 2.63266C5.70624 10.6998 10.391 26.5311 11.2761 33.1608L12.7629 32.9623ZM3.2573 3.08962L33.572 13.1043L34.0425 11.68L3.72783 1.66533L3.2573 3.08962ZM33.7058 11.649L15.1762 14.1785L15.3791 15.6647L33.9087 13.1353L33.7058 11.649ZM14.5395 14.789L11.2814 32.929L12.7577 33.1941L16.0159 15.0542L14.5395 14.789Z" fill="#1B1B1B"/>
<circle cx="12.0949" cy="33.9633" r="0.913177" transform="rotate(-88.6029 12.0949 33.9633)" stroke="#1B1B1B" stroke-width="1.5"/>
<circle cx="34.6628" cy="12.4701" r="0.913177" transform="rotate(-88.6029 34.6628 12.4701)" stroke="#1B1B1B" stroke-width="1.5"/>
<circle cx="2.48386" cy="1.70324" r="0.913177" transform="rotate(-88.6029 2.48386 1.70324)" stroke="#1B1B1B" stroke-width="1.5"/>
<defs>
<linearGradient id="paint0_linear_11_119" x1="-1.96796" y1="22.5341" x2="25.1327" y2="-2.01366" gradientUnits="userSpaceOnUse">
<stop offset="0.485" stop-color="white"/>
<stop offset="0.4851" stop-color="#E3E3E3"/>
</linearGradient>
</defs>
</svg>
