<svg width="166" height="69" viewBox="0 0 166 69" fill="none" xmlns="http://www.w3.org/2000/svg">
<path d="M0 45C0 31.7452 10.7452 21 24 21H146V39C146 55.5685 132.569 69 116 69H24C10.7452 69 0 58.2548 0 45V45Z" fill="#C7CA34"/>
<path d="M24 22H145V39C145 55.0163 132.016 68 116 68H24C11.2975 68 1 57.7025 1 45C1 32.2975 11.2975 22 24 22Z" stroke="white" stroke-opacity="0.2" stroke-width="2"/>
<path d="M25.168 37.896L29.29 48.156L28.084 47.922L31.936 37.896H34.402L28.534 51.612L22.666 37.896H25.168ZM36.3059 43.386H38.3219V51H36.3059V43.386ZM36.2159 40.65C36.2159 40.338 36.3359 40.08 36.5759 39.876C36.8279 39.672 37.0979 39.57 37.3859 39.57C37.6739 39.57 37.9319 39.672 38.1599 39.876C38.3879 40.08 38.5019 40.338 38.5019 40.65C38.5019 40.962 38.3879 41.22 38.1599 41.424C37.9319 41.616 37.6739 41.712 37.3859 41.712C37.0979 41.712 36.8279 41.61 36.5759 41.406C36.3359 41.202 36.2159 40.95 36.2159 40.65ZM44.7232 51.198C43.8232 51.198 43.0552 51.024 42.4192 50.676C41.7832 50.328 41.2972 49.848 40.9612 49.236C40.6252 48.624 40.4572 47.922 40.4572 47.13C40.4572 46.374 40.6492 45.69 41.0332 45.078C41.4172 44.454 41.9332 43.962 42.5812 43.602C43.2412 43.23 43.9672 43.044 44.7592 43.044C45.8032 43.044 46.6612 43.35 47.3332 43.962C48.0172 44.562 48.4732 45.414 48.7012 46.518L42.5632 48.588L42.0952 47.454L46.9012 45.744L46.4692 45.978C46.3492 45.618 46.1392 45.306 45.8392 45.042C45.5392 44.766 45.1252 44.628 44.5972 44.628C44.1772 44.628 43.8052 44.73 43.4812 44.934C43.1572 45.138 42.8992 45.42 42.7072 45.78C42.5272 46.128 42.4372 46.542 42.4372 47.022C42.4372 47.526 42.5392 47.964 42.7432 48.336C42.9472 48.696 43.2232 48.978 43.5712 49.182C43.9192 49.374 44.3152 49.47 44.7592 49.47C45.0712 49.47 45.3652 49.416 45.6412 49.308C45.9292 49.2 46.2052 49.056 46.4692 48.876L47.3872 50.37C46.9912 50.622 46.5532 50.826 46.0732 50.982C45.6052 51.126 45.1552 51.198 44.7232 51.198ZM55.5683 43.386L57.5843 48.012L57.2063 48.048L59.0243 43.386H61.0043L57.5303 51.45L55.0823 46.302L52.8503 51.45L49.3403 43.386H51.3203L53.4623 48.282L52.7783 48.174L54.3623 44.52L53.8403 43.386H55.5683ZM72.5432 37.896C73.5392 37.896 74.3912 38.064 75.0992 38.4C75.8072 38.736 76.3472 39.216 76.7192 39.84C77.1032 40.464 77.2952 41.22 77.2952 42.108C77.2952 42.624 77.2112 43.14 77.0432 43.656C76.8872 44.172 76.6352 44.64 76.2872 45.06C75.9512 45.48 75.4952 45.816 74.9192 46.068C74.3552 46.32 73.6592 46.446 72.8312 46.446H70.9412V51H68.8352V37.896H72.5432ZM72.8312 44.43C73.2872 44.43 73.6712 44.352 73.9832 44.196C74.2952 44.04 74.5352 43.842 74.7032 43.602C74.8832 43.362 75.0092 43.11 75.0812 42.846C75.1652 42.582 75.2072 42.348 75.2072 42.144C75.2072 41.94 75.1712 41.712 75.0992 41.46C75.0272 41.196 74.9072 40.95 74.7392 40.722C74.5712 40.482 74.3372 40.29 74.0372 40.146C73.7372 39.99 73.3532 39.912 72.8852 39.912H70.9412V44.43H72.8312ZM81.2431 43.386L81.4231 45.546L81.3511 45.24C81.5551 44.784 81.8431 44.394 82.2151 44.07C82.5991 43.746 82.9891 43.494 83.3851 43.314C83.7931 43.134 84.1231 43.044 84.3751 43.044L84.2851 45.06C83.7091 45.012 83.2051 45.114 82.7731 45.366C82.3531 45.618 82.0231 45.96 81.7831 46.392C81.5431 46.812 81.4231 47.256 81.4231 47.724V51H79.4251V43.386H81.2431ZM85.4748 47.112C85.4748 46.344 85.6548 45.654 86.0148 45.042C86.3868 44.418 86.8968 43.932 87.5448 43.584C88.1928 43.224 88.9308 43.044 89.7588 43.044C90.6108 43.044 91.3488 43.224 91.9728 43.584C92.6088 43.932 93.0948 44.418 93.4308 45.042C93.7788 45.654 93.9528 46.344 93.9528 47.112C93.9528 47.88 93.7788 48.576 93.4308 49.2C93.0948 49.812 92.6088 50.298 91.9728 50.658C91.3368 51.018 90.5928 51.198 89.7408 51.198C88.9128 51.198 88.1748 51.036 87.5268 50.712C86.8908 50.376 86.3868 49.902 86.0148 49.29C85.6548 48.678 85.4748 47.952 85.4748 47.112ZM87.5088 47.13C87.5088 47.574 87.6048 47.982 87.7968 48.354C87.9888 48.714 88.2528 49.002 88.5888 49.218C88.9248 49.434 89.2968 49.542 89.7048 49.542C90.1488 49.542 90.5328 49.434 90.8568 49.218C91.1928 49.002 91.4508 48.714 91.6308 48.354C91.8228 47.982 91.9188 47.574 91.9188 47.13C91.9188 46.674 91.8228 46.266 91.6308 45.906C91.4508 45.534 91.1928 45.24 90.8568 45.024C90.5328 44.808 90.1488 44.7 89.7048 44.7C89.2848 44.7 88.9068 44.814 88.5708 45.042C88.2468 45.258 87.9888 45.546 87.7968 45.906C87.6048 46.266 87.5088 46.674 87.5088 47.13ZM96.3591 54.672L95.1891 53.43C95.5251 53.142 95.7891 52.794 95.9811 52.386C96.1851 51.978 96.2871 51.492 96.2871 50.928V43.386H98.3031V51.036C98.3031 51.912 98.1531 52.644 97.8531 53.232C97.5531 53.832 97.0551 54.312 96.3591 54.672ZM96.1611 40.65C96.1611 40.338 96.2811 40.08 96.5211 39.876C96.7731 39.672 97.0431 39.57 97.3311 39.57C97.6191 39.57 97.8771 39.672 98.1051 39.876C98.3331 40.08 98.4471 40.338 98.4471 40.65C98.4471 40.962 98.3331 41.22 98.1051 41.424C97.8771 41.616 97.6191 41.712 97.3311 41.712C97.0431 41.712 96.7731 41.61 96.5211 41.406C96.2811 41.202 96.1611 40.95 96.1611 40.65ZM104.665 51.198C103.765 51.198 102.997 51.024 102.361 50.676C101.725 50.328 101.239 49.848 100.903 49.236C100.567 48.624 100.399 47.922 100.399 47.13C100.399 46.374 100.591 45.69 100.975 45.078C101.359 44.454 101.875 43.962 102.523 43.602C103.183 43.23 103.909 43.044 104.701 43.044C105.745 43.044 106.603 43.35 107.275 43.962C107.959 44.562 108.415 45.414 108.643 46.518L102.505 48.588L102.037 47.454L106.843 45.744L106.411 45.978C106.291 45.618 106.081 45.306 105.781 45.042C105.481 44.766 105.067 44.628 104.539 44.628C104.119 44.628 103.747 44.73 103.423 44.934C103.099 45.138 102.841 45.42 102.649 45.78C102.469 46.128 102.379 46.542 102.379 47.022C102.379 47.526 102.481 47.964 102.685 48.336C102.889 48.696 103.165 48.978 103.513 49.182C103.861 49.374 104.257 49.47 104.701 49.47C105.013 49.47 105.307 49.416 105.583 49.308C105.871 49.2 106.147 49.056 106.411 48.876L107.329 50.37C106.933 50.622 106.495 50.826 106.015 50.982C105.547 51.126 105.097 51.198 104.665 51.198ZM116.926 50.298C116.59 50.574 116.176 50.796 115.684 50.964C115.204 51.12 114.718 51.198 114.226 51.198C113.386 51.198 112.648 51.036 112.012 50.712C111.376 50.376 110.878 49.914 110.518 49.326C110.17 48.726 109.996 48.012 109.996 47.184C109.996 46.356 110.182 45.642 110.554 45.042C110.938 44.442 111.436 43.986 112.048 43.674C112.672 43.35 113.326 43.188 114.01 43.188C114.658 43.188 115.228 43.278 115.72 43.458C116.212 43.626 116.632 43.86 116.98 44.16L115.99 45.474C115.798 45.318 115.546 45.174 115.234 45.042C114.934 44.898 114.586 44.826 114.19 44.826C113.794 44.826 113.428 44.928 113.092 45.132C112.756 45.336 112.492 45.618 112.3 45.978C112.108 46.326 112.012 46.728 112.012 47.184C112.012 47.616 112.114 48.012 112.318 48.372C112.522 48.732 112.798 49.02 113.146 49.236C113.506 49.44 113.92 49.542 114.388 49.542C114.7 49.542 114.982 49.5 115.234 49.416C115.486 49.32 115.714 49.194 115.918 49.038L116.926 50.298ZM119.731 40.038H121.747V43.386H123.727V44.97H121.747V51H119.731V44.97H118.417V43.386H119.731V40.038Z" fill="#060607"/>
<path d="M163.663 2.91074C155.66 6.0292 139.886 11.1236 133.196 12.1833L151.41 14.9982L154.391 33.4606L163.663 2.91074Z" fill="url(#paint0_linear_129_54)"/>
<path d="M133.196 12.1833L133.079 11.4426L133.082 12.9245L133.196 12.1833ZM163.663 2.91074L164.381 3.12857C164.464 2.8538 164.384 2.55552 164.173 2.36043C163.962 2.16533 163.659 2.10767 163.391 2.21192L163.663 2.91074ZM154.391 33.4606L153.65 33.5801L155.108 33.6784L154.391 33.4606ZM151.41 14.9982L152.151 14.8787L152.064 14.3403L151.525 14.257L151.41 14.9982ZM133.314 12.9241C140.087 11.8512 155.923 6.73172 163.936 3.60957L163.391 2.21192C155.397 5.32668 139.685 10.396 133.079 11.4426L133.314 12.9241ZM162.946 2.69291L153.673 33.2427L155.108 33.6784L164.381 3.12857L162.946 2.69291ZM155.131 33.341L152.151 14.8787L150.67 15.1177L153.65 33.5801L155.131 33.341ZM151.525 14.257L133.311 11.4421L133.082 12.9245L151.296 15.7394L151.525 14.257Z" fill="#1B1B1B"/>
<circle cx="132.297" cy="12.2807" r="0.913177" stroke="#1B1B1B" stroke-width="1.5"/>
<circle cx="154.334" cy="34.3178" r="0.913177" stroke="#1B1B1B" stroke-width="1.5"/>
<circle cx="164.313" cy="1.88589" r="0.913177" stroke="#1B1B1B" stroke-width="1.5"/>
<defs>
<linearGradient id="paint0_linear_129_54" x1="143.38" y1="-2.05671" x2="168.581" y2="24.4374" gradientUnits="userSpaceOnUse">
<stop offset="0.485" stop-color="white"/>
<stop offset="0.4851" stop-color="#E3E3E3"/>
</linearGradient>
</defs>
</svg>
