<svg width="29" height="26" viewBox="0 0 29 26" fill="none" xmlns="http://www.w3.org/2000/svg">
<path fill-rule="evenodd" clip-rule="evenodd" d="M9.80588 16.78C8.41412 16.78 7.28588 15.6518 7.28588 14.26C7.28588 12.8682 8.41412 11.74 9.80588 11.74C10.0281 11.74 10.2435 11.7687 10.4487 11.8227L13.662 8.60944C13.6044 8.39782 13.5736 8.17512 13.5736 7.94523C13.5736 6.55347 14.7018 5.42523 16.0936 5.42523C17.4853 5.42523 18.6136 6.55347 18.6136 7.94523C18.6136 8.6278 18.3422 9.24699 17.9015 9.70079L19.2224 14.3241C20.3253 14.5927 21.144 15.587 21.144 16.7726C21.144 18.1644 20.0158 19.2926 18.624 19.2926C17.4471 19.2926 16.4586 18.4858 16.1815 17.395L11.5558 16.0734C11.1025 16.5109 10.4856 16.78 9.80588 16.78ZM12.2519 13.6514L16.7789 14.9449L15.4773 10.3893C15.469 10.3872 15.4607 10.3851 15.4524 10.3829L12.2379 13.5974C12.2427 13.6153 12.2474 13.6333 12.2519 13.6514Z" fill="#9B4100"/>
<path fill-rule="evenodd" clip-rule="evenodd" d="M0.79834 13L7.79834 0.399994H21.8811L28.8811 13L21.8811 25.6H7.79834L0.79834 13ZM3.68112 13L9.28112 23.08H20.3983L25.9983 13L20.3983 2.91999H9.28112L3.68112 13Z" fill="#9B4100"/>
</svg>
