<svg width="26" height="26" viewBox="0 0 26 26" fill="none" xmlns="http://www.w3.org/2000/svg">
<path d="M12.9999 2.69084C7.30639 2.69084 2.69085 7.30638 2.69085 12.9999V14.1454H0.39994V12.9999C0.39994 6.04114 6.04115 0.399933 12.9999 0.399933C17.2628 0.399933 21.0296 2.51678 23.309 5.754V1.54539H25.5999V9.56357H17.5818V7.27266H21.5733C19.7231 4.50862 16.5729 2.69084 12.9999 2.69084Z" fill="#96006D"/>
<path d="M25.5999 11.8545V12.9999C25.5999 19.9587 19.9587 25.5999 12.9999 25.5999C8.73703 25.5999 4.97032 23.4831 2.69085 20.246V24.4545H0.39994V16.4363H8.41812V18.7272H4.4265C6.27669 21.4912 9.42692 23.309 12.9999 23.309C18.6934 23.309 23.309 18.6935 23.309 12.9999V11.8545H25.5999Z" fill="#96006D"/>
</svg>
